<?xml version="1.0" encoding="UTF-8"?>
<svg width="1000px" height="1000px" viewBox="0 0 1000 1000" xmlns="http://www.w3.org/2000/svg" xmlns:xlink="http://www.w3.org/1999/xlink" version="1.1">
 <!-- Generated by Pixelmator Pro 1.3.2 -->
 <defs>
  <linearGradient id="linear-gradient" gradientUnits="userSpaceOnUse" x1="135.869" y1="909.104" x2="857.001" y2="86.566">
   <stop offset="0" stop-color="#0ec9b0" stop-opacity="1"/>
   <stop offset="1" stop-color="#22a5fb" stop-opacity="1"/>
  </linearGradient>
 </defs>
 <path id="path" d="M1000 500 C1000 223.858 776.142 0 500 0 223.858 0 0 223.858 0 500 0 776.142 223.858 1000 500 1000 776.142 1000 1000 776.142 1000 500 Z" fill-opacity="1" fill="url(#linear-gradient)" stroke="none"/>
 <g id="life-ring-small-copy">
  <path id="path-1" d="M774.144 501.312 C774.144 350.144 651.598 227.598 500.43 227.598 349.263 227.598 226.717 350.144 226.717 501.312 226.717 652.48 349.263 775.026 500.43 775.026 651.598 775.026 774.144 652.48 774.144 501.312 Z" fill="none" stroke="#d5fff9" stroke-width="79.337" stroke-opacity="1" stroke-linejoin="round"/>
  <path id="path-2" d="M727.335 501.312 C727.335 375.996 625.746 274.407 500.43 274.407 375.114 274.407 273.526 375.996 273.526 501.312 273.526 626.628 375.114 728.217 500.43 728.217 625.746 728.217 727.335 626.628 727.335 501.312 Z" fill="none" stroke="#d5fff9" stroke-width="79.337" stroke-opacity="1" stroke-linejoin="round"/>
  <path id="path-3" d="M499.99 101.002 C591.063 101.563 672.15 193.731 739.99 261 810.162 330.583 901.232 406.394 899.987 501.001 898.804 590.909 811.257 672.277 739.991 740.997 672.356 806.214 593.49 892.107 499.99 892.107 406.49 892.107 327.477 806.004 259.993 740.997 188.582 672.209 102.312 590.886 99.991 501 97.584 407.569 189.678 330.656 259.992 261.001 327.686 193.94 406.529 100.426 499.99 101.002 Z" fill="none" stroke="#d5fff9" stroke-width="27.768" stroke-opacity="1" stroke-linejoin="round"/>
  <path id="path-4" d="M221.237 264.945 L354.641 398.35 397.277 355.714 263.872 222.309 Z" fill="#fafffe" fill-opacity="1" stroke="none"/>
  <path id="path-5" d="M262.984 780.57 L396.388 647.165 353.752 604.53 220.348 737.934 Z" fill="#fafffe" fill-opacity="1" stroke="none"/>
  <path id="path-6" d="M778.609 264.945 L645.204 398.35 602.568 355.714 735.973 222.309 Z" fill="#fafffe" fill-opacity="1" stroke="none"/>
  <path id="path-7" d="M603.457 647.165 L736.862 780.57 779.498 737.934 646.093 604.529 Z" fill="#fafffe" fill-opacity="1" stroke="none"/>
 </g>
</svg>
