<?xml version="1.0" encoding="UTF-8"?>
<svg width="1000px" height="1000px" viewBox="0 0 1000 1000" xmlns="http://www.w3.org/2000/svg" xmlns:xlink="http://www.w3.org/1999/xlink" version="1.1">
 <!-- Generated by Pixelmator Pro 1.3.2 -->
 <defs>
  <linearGradient id="linear-gradient" gradientUnits="userSpaceOnUse" x1="135.869" y1="909.104" x2="857.001" y2="86.566">
   <stop offset="0" stop-color="#0ec9b0" stop-opacity="1"/>
   <stop offset="1" stop-color="#22a5fb" stop-opacity="1"/>
  </linearGradient>
  <style xmlns="http://www.w3.org/2000/svg" type="text/css">
    @import url('https://fonts.googleapis.com/css?family=Roboto');
  </style>
 </defs>
 <path id="path" d="M1000 500 C1000 223.858 776.142 0 500 0 223.858 0 0 223.858 0 500 0 776.142 223.858 1000 500 1000 776.142 1000 1000 776.142 1000 500 Z" fill-opacity="1" fill="url(#linear-gradient)" stroke="none"/>
 <g id="code-small-copy">
  <path id="path-1" d="M195 261.775 C178.432 261.775 165 275.207 165 291.775 L165 709 C165 725.568 178.432 739 195 739 L805 739 C821.568 739 835 725.568 835 709 L835 291.775 C835 275.207 821.568 261.775 805 261.775 Z" fill="#d5fff9" fill-opacity="1" stroke="none"/>
  <defs>
   <text id="string" transform="matrix(1.0 0.0 0.0 1.0 73.09003095202002 296.81288799901995)">
    <tspan x="142.355859375" y="176.0" font-family="Roboto" font-weight="400" font-size="190" text-decoration="none" fill="#17b7d3">$</tspan>
   </text>
  </defs>
  <use id="$" xlink:href="#string"/>
 </g>
</svg>
