<?xml version="1.0" encoding="UTF-8"?>
<svg width="1000px" height="1000px" viewBox="0 0 1000 1000" xmlns="http://www.w3.org/2000/svg" xmlns:xlink="http://www.w3.org/1999/xlink" version="1.1">
 <!-- Generated by Pixelmator Pro 1.3.2 -->
 <defs>
  <linearGradient id="linear-gradient" gradientUnits="userSpaceOnUse" x1="135.869" y1="909.104" x2="857.001" y2="86.566">
   <stop offset="0" stop-color="#0ec9b0" stop-opacity="1"/>
   <stop offset="1" stop-color="#22a5fb" stop-opacity="1"/>
  </linearGradient>
  <style xmlns="http://www.w3.org/2000/svg" type="text/css">
    @import url('https://fonts.googleapis.com/css?family=Roboto');
  </style>
 </defs>
 <path id="path" d="M1000 500 C1000 223.858 776.142 0 500 0 223.858 0 0 223.858 0 500 0 776.142 223.858 1000 500 1000 776.142 1000 1000 776.142 1000 500 Z" fill-opacity="1" fill="url(#linear-gradient)" stroke="none"/>
 <g id="code-big">
  <path id="path-1" d="M320 207 C297.909 207 280 224.909 280 247 L280 752 C280 774.091 297.909 792 320 792 L680 792 C702.091 792 720 774.091 720 752 L720 247 C720 224.909 702.091 207 680 207 Z" fill="#ffffff" fill-opacity="1" stroke="none"/>
  <defs>
   <text id="string" transform="matrix(1.0 0.0 0.0 1.0 287.0 362.0)">
    <tspan x="40.514404296875" y="209.0" font-family="Roboto" font-weight="400" font-size="225" text-decoration="none" fill="#17b7d3">&lt;</tspan>
    <tspan x="168.382080078125" y="209.0" font-family="Roboto" font-weight="400" font-size="225" text-decoration="none" fill="#17b7d3">/</tspan>
    <tspan x="270.871337890625" y="209.0" font-family="Roboto" font-weight="400" font-size="225" text-decoration="none" fill="#17b7d3">&gt;</tspan>
   </text>
  </defs>
  <use id="&lt;/&gt;" xlink:href="#string"/>
 </g>
</svg>
