<?xml version="1.0" encoding="UTF-8"?>
<svg width="2000px" height="2000px" viewBox="0 0 2000 2000" xmlns="http://www.w3.org/2000/svg" xmlns:xlink="http://www.w3.org/1999/xlink" version="1.1">
 <!-- Generated by Pixelmator Pro 1.3.2 -->
 <defs>
  <style xmlns="http://www.w3.org/2000/svg" type="text/css">
    @import url('https://fonts.googleapis.com/css?family=Roboto|Mukta');
  </style>
 </defs>
 <path id="path" d="M200 200 L200 1800 1800 1800" fill="none" stroke="#ebebeb" stroke-width="20" stroke-opacity="1" stroke-linejoin="round" stroke-linecap="round"/>
 <path id="path-1" d="M210 1790 C210 1790 224.572 728.512 1227.449 332.846" fill="none" stroke="#00d1be" stroke-width="20" stroke-opacity="1" stroke-linejoin="round" stroke-linecap="round"/>
 <defs>
  <path id="path-2" d="M1227.449 332.846 C1390.708 268.436 1580.158 221.669 1800 200"/>
 </defs>
 <defs>
  <path id="stroke-path" d="M1264.984 319.021 L1302.519 305.196"/>
  <path id="stroke-path-1" d="M1340.545 292.795 L1371.481 282.833 1378.698 280.793"/>
  <path id="stroke-path-2" d="M1417.189 269.91 L1439.643 263.561 1455.83 259.597"/>
  <path id="stroke-path-3" d="M1494.682 250.082 L1510.421 246.227 1533.716 241.371"/>
  <path id="stroke-path-4" d="M1572.875 233.209 L1583.863 230.919 1612.216 226.006"/>
  <path id="stroke-path-5" d="M1651.629 219.176 L1660.019 217.722 1691.202 213.378"/>
  <path id="stroke-path-6" d="M1730.82 207.858 L1738.938 206.726 1770.55 203.244"/>
 </defs>
 <g id="deployment-trajectory-(future)" stroke="#00d1be" stroke-opacity="1" stroke-linecap="round" fill="none" stroke-width="20">
  <use xlink:href="#stroke-path"/>
  <use xlink:href="#stroke-path-1"/>
  <use xlink:href="#stroke-path-2"/>
  <use xlink:href="#stroke-path-3"/>
  <use xlink:href="#stroke-path-4"/>
  <use xlink:href="#stroke-path-5"/>
  <use xlink:href="#stroke-path-6"/>
 </g>
 <path id="path-3" d="M782.55 1657.154 C619.291 1721.565 429.841 1768.331 210 1790" fill="none" stroke="#22a5fb" stroke-width="20" stroke-opacity="1" stroke-linejoin="round" stroke-linecap="round"/>
 <defs>
  <path id="path-4" d="M1800 200 C1800 200 1785.427 1261.488 782.55 1657.154"/>
 </defs>
 <defs>
  <path id="stroke-path-7" d="M1797.565 239.926 L1796.464 257.971 1794.099 279.764"/>
  <path id="stroke-path-8" d="M1789.669 319.516 L1783.715 359.07"/>
  <path id="stroke-path-9" d="M1777.544 398.588 L1770.743 435.333 1770.201 437.908"/>
  <path id="stroke-path-10" d="M1761.957 477.049 L1760.975 481.716 1752.819 515.99"/>
  <path id="stroke-path-11" d="M1742.959 554.753 L1738.991 569.743 1732.15 593.261"/>
  <path id="stroke-path-12" d="M1720.724 631.592 L1708.385 669.641"/>
  <path id="stroke-path-13" d="M1695.122 707.374 L1684.71 736.263 1681.262 744.892"/>
  <path id="stroke-path-14" d="M1666.42 782.036 L1661.246 794.984 1650.707 818.814"/>
  <path id="stroke-path-15" d="M1634.511 855.388 L1620.401 884.992 1617.108 891.401"/>
  <path id="stroke-path-16" d="M1598.826 926.979 L1589.145 945.82 1579.858 962.185"/>
  <path id="stroke-path-17" d="M1560.115 996.974 L1554.461 1006.938 1539.302 1031.123"/>
  <path id="stroke-path-18" d="M1518.058 1065.016 L1516.17 1068.029 1495.774 1098.231"/>
  <path id="stroke-path-19" d="M1472.233 1130.57 L1451.581 1158.923 1448.54 1162.794"/>
  <path id="stroke-path-20" d="M1423.626 1194.083 L1397.739 1224.577"/>
  <path id="stroke-path-21" d="M1371.583 1254.833 L1351.175 1277.069 1344.347 1284.125"/>
  <path id="stroke-path-22" d="M1316.344 1312.683 L1294.448 1334.125 1287.589 1340.485"/>
  <path id="stroke-path-23" d="M1258.104 1367.511 L1233.133 1389.415 1227.91 1393.744"/>
  <path id="stroke-path-24" d="M1197.031 1419.168 L1167.052 1442.622 1165.494 1443.771"/>
  <path id="stroke-path-25" d="M1133.3 1467.511 L1132.169 1468.345 1100.463 1490.351"/>
  <path id="stroke-path-26" d="M1067.046 1512.331 L1058.606 1517.835 1033.079 1533.45"/>
  <path id="stroke-path-27" d="M998.594 1553.71 L979.831 1564.452 963.622 1573.118"/>
  <path id="stroke-path-28" d="M928.195 1591.682 L895.667 1607.879 892.342 1609.416"/>
  <path id="stroke-path-29" d="M856.036 1626.203 L851.508 1628.297 819.21 1641.813"/>
 </defs>
 <g id="development-trajectory-(future)" stroke="#22a5fb" stroke-opacity="1" stroke-linecap="round" fill="none" stroke-width="20">
  <use xlink:href="#stroke-path-7"/>
  <use xlink:href="#stroke-path-8"/>
  <use xlink:href="#stroke-path-9"/>
  <use xlink:href="#stroke-path-10"/>
  <use xlink:href="#stroke-path-11"/>
  <use xlink:href="#stroke-path-12"/>
  <use xlink:href="#stroke-path-13"/>
  <use xlink:href="#stroke-path-14"/>
  <use xlink:href="#stroke-path-15"/>
  <use xlink:href="#stroke-path-16"/>
  <use xlink:href="#stroke-path-17"/>
  <use xlink:href="#stroke-path-18"/>
  <use xlink:href="#stroke-path-19"/>
  <use xlink:href="#stroke-path-20"/>
  <use xlink:href="#stroke-path-21"/>
  <use xlink:href="#stroke-path-22"/>
  <use xlink:href="#stroke-path-23"/>
  <use xlink:href="#stroke-path-24"/>
  <use xlink:href="#stroke-path-25"/>
  <use xlink:href="#stroke-path-26"/>
  <use xlink:href="#stroke-path-27"/>
  <use xlink:href="#stroke-path-28"/>
  <use xlink:href="#stroke-path-29"/>
 </g>
 <defs>
  <text id="string" transform="matrix(-1.8369701987210297e-16 -1.0 1.0 -1.8369701987210297e-16 98.0 1767.0)">
   <tspan x="1.492431640625" y="51.0" font-family="Roboto" font-size="55" text-decoration="none" fill="#a9a9a9">L</tspan>
   <tspan x="31.087158203125" y="51.0" font-family="Roboto" font-size="55" text-decoration="none" fill="#a9a9a9">o</tspan>
   <tspan x="62.454345703125" y="51.0" font-family="Roboto" font-size="55" text-decoration="none" fill="#a9a9a9">c</tspan>
   <tspan x="91.243408203125" y="51.0" font-family="Roboto" font-size="55" text-decoration="none" fill="#a9a9a9">a</tspan>
   <tspan x="121.160400390625" y="51.0" font-family="Roboto" font-size="55" text-decoration="none" fill="#a9a9a9">l</tspan>
  </text>
 </defs>
 <use id="local" xlink:href="#string"/>
 <defs>
  <text id="string-1" transform="matrix(-1.8369701987210297e-16 -1.0 1.0 -1.8369701987210297e-16 1677.0 1364.0)">
   <tspan x="1.6799999999999784" y="79.0" font-family="Mukta-Regular, Mukta" font-size="70" text-decoration="none" fill="#424242">M</tspan>
   <tspan x="57.74999999999998" y="79.0" font-family="Mukta-Regular, Mukta" font-size="70" text-decoration="none" fill="#424242">u</tspan>
   <tspan x="95.47999999999999" y="79.0" font-family="Mukta-Regular, Mukta" font-size="70" text-decoration="none" fill="#424242">t</tspan>
   <tspan x="120.96" y="79.0" font-family="Mukta-Regular, Mukta" font-size="70" text-decoration="none" fill="#424242">a</tspan>
   <tspan x="155.19" y="79.0" font-family="Mukta-Regular, Mukta" font-size="70" text-decoration="none" fill="#424242">g</tspan>
   <tspan x="191.66" y="79.0" font-family="Mukta-Regular, Mukta" font-size="70" text-decoration="none" fill="#424242">e</tspan>
   <tspan x="226.94" y="79.0" font-family="Mukta-Regular, Mukta" font-size="70" text-decoration="none" fill="#424242">n</tspan>
  </text>
 </defs>
 <use id="mutagen" xlink:href="#string-1"/>
 <defs>
  <text id="string-2" transform="matrix(-1.8369701987210297e-16 -1.0 1.0 -1.8369701987210297e-16 97.00000000000003 424.0)">
   <tspan x="1.159912109375" y="51.0" font-family="Roboto" font-size="55" text-decoration="none" fill="#a9a9a9">R</tspan>
   <tspan x="35.024658203125" y="51.0" font-family="Roboto" font-size="55" text-decoration="none" fill="#a9a9a9">e</tspan>
   <tspan x="64.162841796875" y="51.0" font-family="Roboto" font-size="55" text-decoration="none" fill="#a9a9a9">m</tspan>
   <tspan x="112.368408203125" y="51.0" font-family="Roboto" font-size="55" text-decoration="none" fill="#a9a9a9">o</tspan>
   <tspan x="143.735595703125" y="51.0" font-family="Roboto" font-size="55" text-decoration="none" fill="#a9a9a9">t</tspan>
   <tspan x="161.701904296875" y="51.0" font-family="Roboto" font-size="55" text-decoration="none" fill="#a9a9a9">e</tspan>
  </text>
 </defs>
 <use id="remote" xlink:href="#string-2"/>
 <defs>
  <text id="string-3" transform="matrix(1.0 0.0 0.0 1.0 220.0 1839.0)">
   <tspan x="1.90576171875" y="51.0" font-family="Roboto" font-size="55" text-decoration="none" fill="#a9a9a9">M</tspan>
   <tspan x="49.92333984375" y="51.0" font-family="Roboto" font-size="55" text-decoration="none" fill="#a9a9a9">o</tspan>
   <tspan x="81.29052734375" y="51.0" font-family="Roboto" font-size="55" text-decoration="none" fill="#a9a9a9">n</tspan>
   <tspan x="111.63720703125" y="51.0" font-family="Roboto" font-size="55" text-decoration="none" fill="#a9a9a9">o</tspan>
   <tspan x="143.00439453125" y="51.0" font-family="Roboto" font-size="55" text-decoration="none" fill="#a9a9a9">l</tspan>
   <tspan x="156.3515625" y="51.0" font-family="Roboto" font-size="55" text-decoration="none" fill="#a9a9a9">i</tspan>
   <tspan x="169.69873046875" y="51.0" font-family="Roboto" font-size="55" text-decoration="none" fill="#a9a9a9">t</tspan>
   <tspan x="187.6650390625" y="51.0" font-family="Roboto" font-size="55" text-decoration="none" fill="#a9a9a9">h</tspan>
   <tspan x="217.9580078125" y="51.0" font-family="Roboto" font-size="55" text-decoration="none" fill="#a9a9a9">i</tspan>
   <tspan x="231.30517578125" y="51.0" font-family="Roboto" font-size="55" text-decoration="none" fill="#a9a9a9">c</tspan>
  </text>
 </defs>
 <use id="monolithic" xlink:href="#string-3"/>
 <defs>
  <text id="string-4" transform="matrix(1.0 0.0 0.0 1.0 1427.0 1839.0)">
   <tspan x="1.414794921875" y="51.0" font-family="Roboto" font-size="55" text-decoration="none" fill="#a9a9a9">C</tspan>
   <tspan x="37.213134765625" y="51.0" font-family="Roboto" font-size="55" text-decoration="none" fill="#a9a9a9">o</tspan>
   <tspan x="68.580322265625" y="51.0" font-family="Roboto" font-size="55" text-decoration="none" fill="#a9a9a9">n</tspan>
   <tspan x="98.927001953125" y="51.0" font-family="Roboto" font-size="55" text-decoration="none" fill="#a9a9a9">t</tspan>
   <tspan x="116.893310546875" y="51.0" font-family="Roboto" font-size="55" text-decoration="none" fill="#a9a9a9">a</tspan>
   <tspan x="146.810302734375" y="51.0" font-family="Roboto" font-size="55" text-decoration="none" fill="#a9a9a9">i</tspan>
   <tspan x="160.157470703125" y="51.0" font-family="Roboto" font-size="55" text-decoration="none" fill="#a9a9a9">n</tspan>
   <tspan x="190.504150390625" y="51.0" font-family="Roboto" font-size="55" text-decoration="none" fill="#a9a9a9">e</tspan>
   <tspan x="219.642333984375" y="51.0" font-family="Roboto" font-size="55" text-decoration="none" fill="#a9a9a9">r</tspan>
   <tspan x="238.253173828125" y="51.0" font-family="Roboto" font-size="55" text-decoration="none" fill="#a9a9a9">i</tspan>
   <tspan x="251.600341796875" y="51.0" font-family="Roboto" font-size="55" text-decoration="none" fill="#a9a9a9">z</tspan>
   <tspan x="278.428955078125" y="51.0" font-family="Roboto" font-size="55" text-decoration="none" fill="#a9a9a9">e</tspan>
   <tspan x="307.567138671875" y="51.0" font-family="Roboto" font-size="55" text-decoration="none" fill="#a9a9a9">d</tspan>
  </text>
 </defs>
 <use id="containerized" xlink:href="#string-4"/>
 <defs>
  <text id="string-5" transform="matrix(1.0 0.0 0.0 1.0 1035.0 1600.0)">
   <tspan x="1.3720703125" y="65.0" font-family="Roboto" font-size="70" text-decoration="none" fill="#a9a9a9">O</tspan>
   <tspan x="49.4970703125" y="65.0" font-family="Roboto" font-size="70" text-decoration="none" fill="#a9a9a9">r</tspan>
   <tspan x="72.5341796875" y="65.0" font-family="Roboto" font-size="70" text-decoration="none" fill="#a9a9a9">c</tspan>
   <tspan x="109.1748046875" y="65.0" font-family="Roboto" font-size="70" text-decoration="none" fill="#a9a9a9">h</tspan>
   <tspan x="147.7294921875" y="65.0" font-family="Roboto" font-size="70" text-decoration="none" fill="#a9a9a9">e</tspan>
   <tspan x="184.814453125" y="65.0" font-family="Roboto" font-size="70" text-decoration="none" fill="#a9a9a9">s</tspan>
   <tspan x="220.908203125" y="65.0" font-family="Roboto" font-size="70" text-decoration="none" fill="#a9a9a9">t</tspan>
   <tspan x="243.7744140625" y="65.0" font-family="Roboto" font-size="70" text-decoration="none" fill="#a9a9a9">r</tspan>
   <tspan x="266.09375" y="65.0" font-family="Roboto" font-size="70" text-decoration="none" fill="#a9a9a9">a</tspan>
   <tspan x="304.169921875" y="65.0" font-family="Roboto" font-size="70" text-decoration="none" fill="#a9a9a9">t</tspan>
   <tspan x="327.0361328125" y="65.0" font-family="Roboto" font-size="70" text-decoration="none" fill="#a9a9a9">i</tspan>
   <tspan x="344.0234375" y="65.0" font-family="Roboto" font-size="70" text-decoration="none" fill="#a9a9a9">o</tspan>
   <tspan x="383.9453125" y="65.0" font-family="Roboto" font-size="70" text-decoration="none" fill="#a9a9a9">n</tspan>
   <tspan x="422.568359375" y="65.0" font-family="Roboto" font-size="70" text-decoration="none" fill="#a9a9a9"> </tspan>
   <tspan x="438.5302734375" y="65.0" font-family="Roboto" font-size="70" text-decoration="none" fill="#a9a9a9">T</tspan>
   <tspan x="476.9140625" y="65.0" font-family="Roboto" font-size="70" text-decoration="none" fill="#a9a9a9">o</tspan>
   <tspan x="516.8359375" y="65.0" font-family="Roboto" font-size="70" text-decoration="none" fill="#a9a9a9">o</tspan>
   <tspan x="556.7578125" y="65.0" font-family="Roboto" font-size="70" text-decoration="none" fill="#a9a9a9">l</tspan>
   <tspan x="573.7451171875" y="65.0" font-family="Roboto" font-size="70" text-decoration="none" fill="#a9a9a9">i</tspan>
   <tspan x="590.732421875" y="65.0" font-family="Roboto" font-size="70" text-decoration="none" fill="#a9a9a9">n</tspan>
   <tspan x="629.35546875" y="65.0" font-family="Roboto" font-size="70" text-decoration="none" fill="#a9a9a9">g</tspan>
  </text>
 </defs>
 <use id="orchestration-tooling" xlink:href="#string-5"/>
 <g id="new-group">
  <path id="path-5" d="M938 1647.5 C938 1571.561 876.439 1510 800.5 1510 724.561 1510 663 1571.561 663 1647.5 663 1723.439 724.561 1785 800.5 1785 876.439 1785 938 1723.439 938 1647.5 Z" fill="#22a5fb" fill-opacity="1" stroke="none"/>
  <defs>
   <text id="string-6" transform="matrix(1.0 0.0 0.0 1.0 677.0 1625.0)">
    <tspan x="1.4816406249999687" y="35.0" font-family="Roboto" font-size="38" text-decoration="none" fill="#ffffff">D</tspan>
    <tspan x="28.300585937499967" y="35.0" font-family="Roboto" font-size="38" text-decoration="none" fill="#ffffff">e</tspan>
    <tspan x="50.091210937499966" y="35.0" font-family="Roboto" font-size="38" text-decoration="none" fill="#ffffff">v</tspan>
    <tspan x="70.15624999999997" y="35.0" font-family="Roboto" font-size="38" text-decoration="none" fill="#ffffff">e</tspan>
    <tspan x="92.18808593749998" y="35.0" font-family="Roboto" font-size="38" text-decoration="none" fill="#ffffff">l</tspan>
    <tspan x="103.30976562499998" y="35.0" font-family="Roboto" font-size="38" text-decoration="none" fill="#ffffff">o</tspan>
    <tspan x="126.88164062499999" y="35.0" font-family="Roboto" font-size="38" text-decoration="none" fill="#ffffff">p</tspan>
    <tspan x="150.1009765625" y="35.0" font-family="Roboto" font-size="38" text-decoration="none" fill="#ffffff">m</tspan>
    <tspan x="185.306640625" y="35.0" font-family="Roboto" font-size="38" text-decoration="none" fill="#ffffff">e</tspan>
    <tspan x="207.3384765625" y="35.0" font-family="Roboto" font-size="38" text-decoration="none" fill="#ffffff">n</tspan>
    <tspan x="230.2052734375" y="35.0" font-family="Roboto" font-size="38" text-decoration="none" fill="#ffffff">t</tspan>
   </text>
  </defs>
  <use id="development" xlink:href="#string-6"/>
 </g>
 <g id="new-group-copy">
  <path id="path-6" d="M1380 332.5 C1380 256.561 1318.439 195 1242.5 195 1166.561 195 1105 256.561 1105 332.5 1105 408.439 1166.561 470 1242.5 470 1318.439 470 1380 408.439 1380 332.5 Z" fill="#00d1be" fill-opacity="1" stroke="none"/>
  <defs>
   <text id="string-7" transform="matrix(1.0 0.0 0.0 1.0 1131.0 311.0)">
    <tspan x="1.6088867187499716" y="35.0" font-family="Roboto" font-size="38" text-decoration="none" fill="#ffffff">D</tspan>
    <tspan x="28.42783203124997" y="35.0" font-family="Roboto" font-size="38" text-decoration="none" fill="#ffffff">e</tspan>
    <tspan x="50.45966796874997" y="35.0" font-family="Roboto" font-size="38" text-decoration="none" fill="#ffffff">p</tspan>
    <tspan x="73.67900390624996" y="35.0" font-family="Roboto" font-size="38" text-decoration="none" fill="#ffffff">l</tspan>
    <tspan x="84.80068359374997" y="35.0" font-family="Roboto" font-size="38" text-decoration="none" fill="#ffffff">o</tspan>
    <tspan x="108.09423828124997" y="35.0" font-family="Roboto" font-size="38" text-decoration="none" fill="#ffffff">y</tspan>
    <tspan x="127.97373046874998" y="35.0" font-family="Roboto" font-size="38" text-decoration="none" fill="#ffffff">m</tspan>
    <tspan x="163.17939453124998" y="35.0" font-family="Roboto" font-size="38" text-decoration="none" fill="#ffffff">e</tspan>
    <tspan x="185.21123046875" y="35.0" font-family="Roboto" font-size="38" text-decoration="none" fill="#ffffff">n</tspan>
    <tspan x="208.07802734375" y="35.0" font-family="Roboto" font-size="38" text-decoration="none" fill="#ffffff">t</tspan>
   </text>
  </defs>
  <use id="deployment" xlink:href="#string-7"/>
 </g>
 <path id="path-7" d="M1800 700 L1800 1700" fill="none" stroke="#bbe2fb" stroke-width="10" stroke-opacity="1" stroke-linejoin="round" stroke-linecap="round"/>
 <path id="path-8" d="M1000 1700 L1750 1700" fill="none" stroke="#bbe2fb" stroke-width="10" stroke-opacity="1" stroke-linejoin="round" stroke-linecap="round"/>
 <path id="path-9" d="M1730 1680 L1750 1700 1730 1720" fill="none" stroke="#bbe2fb" stroke-width="10" stroke-opacity="1" stroke-linejoin="round" stroke-linecap="round"/>
 <path id="path-10" d="M1780 720 L1800 700 1820 720" fill="none" stroke="#bbe2fb" stroke-width="10" stroke-opacity="1" stroke-linejoin="round" stroke-linecap="round"/>
</svg>
