<?xml version="1.0" encoding="UTF-8"?>
<svg width="1550px" height="1200px" viewBox="0 0 1550 1200" xmlns="http://www.w3.org/2000/svg" xmlns:xlink="http://www.w3.org/1999/xlink" version="1.1">
 <filter id="blurEdge">
  <feGaussianBlur in="SourceGraphic" stdDeviation="20" />
 </filter>
 <style>
   /* <![CDATA[ */
   .terminal-cursor {
      /* animation: terminal-cursor-blink 1s steps(1, end) infinite; */
   }

   @keyframes terminal-cursor-blink {
       0% {
           opacity: 0;
       }
       50% {
           opacity: 1;
       }
       100% {
           opacity: 0;
       }
   }
   /* ]]> */
 </style>
 <!-- Generated by Pixelmator Pro 1.3.4 -->
 <path id="path" d="M62 693 L562 1068 1362.032 467.976 862.031 92.977 Z" fill="#000000" fill-opacity="0.5" stroke="none" filter="url(#blurEdge)"/>
 <g id="background">
  <defs>
   <linearGradient id="linear-gradient" gradientUnits="userSpaceOnUse" x1="1007.775" y1="1014.613" x2="416.258" y2="146.364">
    <stop offset="0" stop-color="#f02c26" stop-opacity="1"/>
    <stop offset="1" stop-color="#ee2848" stop-opacity="1"/>
   </linearGradient>
  </defs>
  <path id="path-1" d="M62 693 L562 1068 1362.032 467.976 862.031 92.977 Z" fill-opacity="1" fill="url(#linear-gradient)" stroke="none"/>
  <g id="logo-copy">
   <path id="path-2" d="M174.483 661.567 L206.142 685.337 198.631 718.443 157.751 729.152 126.091 705.382 135.313 670.902 Z" fill="none" stroke="#ffffff" stroke-width="5.155" stroke-opacity="1" stroke-linejoin="round" stroke-linecap="round"/>
   <path id="path-3" d="M173.741 666.095 L201.354 686.984 198.741 700.444 192.885 701.178 195.513 689.299 167.511 667.734 Z" fill="#ffffff" fill-opacity="1" stroke="none"/>
   <path id="path-4" d="M195.182 715.008 L158.11 724.623 146.392 715.458 147.146 709.451 160.076 719.352 196.203 710.228 Z" fill="#ffffff" fill-opacity="1" stroke="none"/>
   <path id="path-5" d="M131.043 703.251 L139.221 674.381 152.91 670.972 157.163 674.82 143.559 678.683 136.426 707.295 Z" fill="#ffffff" fill-opacity="1" stroke="none"/>
  </g>
 </g>
 <path id="path-6" d="M887 68.003 L1487 518.003 1487 528 1087 828 487 378 487 368.003 Z" fill="#070707" fill-opacity="0.5" stroke="none" filter="url(#blurEdge)"/>
 <g id="editor">
  <path id="path-7" d="M887 68.003 L1487 518.003 1487 528 1087 828 487 378 487 368.003 Z" fill="#070707" fill-opacity="1" stroke="none"/>
  <path id="path-8" d="M487 368.001 L1087 818.001 1087 828.001 487 378.001 Z" fill="#171717" fill-opacity="1" stroke="none"/>
  <path id="path-9" d="M1487 518.002 L1487 528.002 1087 828.001 1087 818.002 Z" fill="#070707" fill-opacity="1" stroke="none"/>
  <defs>
   <linearGradient id="linear-gradient-1" gradientUnits="userSpaceOnUse" x1="485.109" y1="333.234" x2="1499.031" y2="553.063">
    <stop offset="0" stop-color="#212121" stop-opacity="1"/>
    <stop offset="1" stop-color="#212121" stop-opacity="1"/>
   </linearGradient>
  </defs>
  <path id="path-10" d="M887 68.001 L1487 518.001 1087 818 487 368.001 Z" fill-opacity="1" fill="url(#linear-gradient-1)" stroke="none"/>
  <path id="path-11" d="M1149 277 L1229 337" fill="none" stroke="#ebebeb" stroke-width="5" stroke-opacity="1" stroke-linejoin="round" stroke-linecap="round"/>
  <g id="status-bar">
   <path id="path-12" d="M503 368 L583 428" fill="none" stroke="#5e5e5e" stroke-width="5" stroke-opacity="1" stroke-linejoin="round" stroke-linecap="round"/>
   <path id="path-13" d="M979 725 L1023 758" fill="none" stroke="#5e5e5e" stroke-width="5" stroke-opacity="1" stroke-linejoin="round" stroke-linecap="round"/>
   <path id="path-14" d="M1031 764 L1087 806" fill="none" stroke="#5e5e5e" stroke-width="5" stroke-opacity="1" stroke-linejoin="round" stroke-linecap="round"/>
  </g>
  <g id="file-drawer">
   <path id="path-15" d="M875 83.003 L1011 185.003 643 461 507 359.003 Z" fill="#333333" fill-opacity="1" stroke="none"/>
   <g id="contents">
    <path id="path-16" d="M867 108 L947 168" fill="none" stroke="#ebebeb" stroke-width="5" stroke-opacity="1" stroke-linejoin="round" stroke-linecap="round"/>
    <path id="path-17" d="M855 129 L935 189" fill="none" stroke="#ebebeb" stroke-width="5" stroke-opacity="1" stroke-linejoin="round" stroke-linecap="round"/>
    <defs>
     <linearGradient id="linear-gradient-2" gradientUnits="userSpaceOnUse" x1="847" y1="180" x2="919" y2="180">
      <stop offset="0" stop-color="#22a5fb" stop-opacity="1"/>
      <stop offset="1" stop-color="#0ec9b0" stop-opacity="1"/>
     </linearGradient>
    </defs>
    <path id="path-18" d="M847 153 L919 207" fill="none" stroke-width="5" stroke-opacity="1" stroke="url(#linear-gradient-2)" stroke-linecap="round"/>
    <path id="path-19" d="M815 159 L867 198" fill="none" stroke="#ebebeb" stroke-width="5" stroke-opacity="1" stroke-linejoin="round" stroke-linecap="round"/>
    <path id="path-20" d="M795 174 L867 228" fill="none" stroke="#ebebeb" stroke-width="5" stroke-opacity="1" stroke-linejoin="round" stroke-linecap="round"/>
    <path id="path-21" d="M783 195 L863 255" fill="none" stroke="#ebebeb" stroke-width="5" stroke-opacity="1" stroke-linejoin="round" stroke-linecap="round"/>
    <path id="path-22" d="M763 210 L827 258" fill="none" stroke="#ebebeb" stroke-width="5" stroke-opacity="1" stroke-linejoin="round" stroke-linecap="round"/>
    <path id="path-23" d="M743 225 L819 282" fill="none" stroke="#ebebeb" stroke-width="5" stroke-opacity="1" stroke-linejoin="round" stroke-linecap="round"/>
    <path id="path-24" d="M715 234 L767 273" fill="none" stroke="#ebebeb" stroke-width="5" stroke-opacity="1" stroke-linejoin="round" stroke-linecap="round"/>
    <path id="path-25" d="M703 255 L783 315" fill="none" stroke="#ebebeb" stroke-width="5" stroke-opacity="1" stroke-linejoin="round" stroke-linecap="round"/>
    <path id="path-26" d="M691 276 L751 321" fill="none" stroke="#ebebeb" stroke-width="5" stroke-opacity="1" stroke-linejoin="round" stroke-linecap="round"/>
    <path id="path-27" d="M671 291 L747 348" fill="none" stroke="#ebebeb" stroke-width="5" stroke-opacity="1" stroke-linejoin="round" stroke-linecap="round"/>
    <path id="path-28" d="M635 294 L707 348" fill="none" stroke="#ebebeb" stroke-width="5" stroke-opacity="1" stroke-linejoin="round" stroke-linecap="round"/>
    <path id="path-29" d="M623 315 L703 375" fill="none" stroke="#ebebeb" stroke-width="5" stroke-opacity="1" stroke-linejoin="round" stroke-linecap="round"/>
    <path id="path-30" d="M595 324 L651 366" fill="none" stroke="#ebebeb" stroke-width="5" stroke-opacity="1" stroke-linejoin="round" stroke-linecap="round"/>
    <path id="path-31" d="M575 339 L627 378" fill="none" stroke="#ebebeb" stroke-width="5" stroke-opacity="1" stroke-linejoin="round" stroke-linecap="round"/>
    <path id="path-32" d="M555 354 L627 408" fill="none" stroke="#ebebeb" stroke-width="5" stroke-opacity="1" stroke-linejoin="round" stroke-linecap="round"/>
   </g>
  </g>
  <g id="code">
   <path id="path-33" d="M995 203.005 L1443 539.005 1095 800.001 647 464.005 Z" fill="#333333" fill-opacity="1" stroke="none"/>
   <g id="contents-1">
    <path id="path-34" d="M995 219 L1207 378" fill="none" stroke="#22a5fb" stroke-width="4" stroke-opacity="1" stroke-linejoin="round" stroke-linecap="round"/>
    <path id="path-35" d="M1007 246 L1087 306" fill="none" stroke="#afafaf" stroke-width="4" stroke-opacity="1" stroke-linejoin="round" stroke-linecap="round"/>
    <path id="path-36" d="M995 255 L1063 306" fill="none" stroke="#0ec9b0" stroke-width="4" stroke-opacity="1" stroke-linejoin="round" stroke-linecap="round"/>
    <path id="path-37" d="M1071 312 L1075 315" fill="none" stroke="#22a5fb" stroke-width="4" stroke-opacity="1" stroke-linejoin="round" stroke-linecap="round"/>
    <path id="path-38" d="M1007 282 L1087 342" fill="none" stroke="#eeeeee" stroke-width="4" stroke-opacity="1" stroke-linejoin="round" stroke-linecap="round"/>
    <path id="path-39" d="M971 273 L987 285" fill="none" stroke="#0ec9b0" stroke-width="4" stroke-opacity="1" stroke-linejoin="round" stroke-linecap="round"/>
    <path id="path-40" d="M995 291 L999 294" fill="none" stroke="#22a5fb" stroke-width="4" stroke-opacity="1" stroke-linejoin="round" stroke-linecap="round"/>
    <path id="path-41" d="M983 300 L1063 360" fill="none" stroke="#eeeeee" stroke-width="4" stroke-opacity="1" stroke-linejoin="round" stroke-linecap="round"/>
    <path id="path-42" d="M947 291 L951 294" fill="none" stroke="#22a5fb" stroke-width="4" stroke-opacity="1" stroke-linejoin="round" stroke-linecap="round"/>
    <path id="path-43" d="M923 309 L1003 369" fill="none" stroke="#afafaf" stroke-width="4" stroke-opacity="1" stroke-linejoin="round" stroke-linecap="round"/>
    <path id="path-44" d="M911 318 L1003 387" fill="none" stroke="#eeeeee" stroke-width="4" stroke-opacity="1" stroke-linejoin="round" stroke-linecap="round"/>
    <path id="path-45" d="M899 327 L971 381" fill="none" stroke="#eeeeee" stroke-width="4" stroke-opacity="1" stroke-linejoin="round" stroke-linecap="round"/>
    <path id="path-46" d="M863 318 L867 321" fill="none" stroke="#22a5fb" stroke-width="4" stroke-opacity="1" stroke-linejoin="round" stroke-linecap="round"/>
    <path id="path-47" d="M839 336 L1023 474" fill="none" stroke="#22a5fb" stroke-width="4" stroke-opacity="1" stroke-linejoin="round" stroke-linecap="round"/>
    <path id="path-48" d="M1031 480 L1035 483" fill="none" stroke="#22a5fb" stroke-width="4" stroke-opacity="1" stroke-linejoin="round" stroke-linecap="round"/>
    <path id="path-49" d="M1215 384 L1219 387" fill="none" stroke="#22a5fb" stroke-width="4" stroke-opacity="1" stroke-linejoin="round" stroke-linecap="round"/>
    <path id="path-50" d="M851 363 L939 429" fill="none" stroke="#afafaf" stroke-width="4" stroke-opacity="1" stroke-linejoin="round" stroke-linecap="round"/>
    <path id="path-51" d="M839 372 L915 429" fill="none" stroke="#eeeeee" stroke-width="4" stroke-opacity="1" stroke-linejoin="round" stroke-linecap="round"/>
    <path id="path-52" d="M827 381 L895 432" fill="none" stroke="#eeeeee" stroke-width="4" stroke-opacity="1" stroke-linejoin="round" stroke-linecap="round"/>
    <path id="path-53" d="M815 390 L891 447" fill="none" stroke="#eeeeee" stroke-width="4" stroke-opacity="1" stroke-linejoin="round" stroke-linecap="round"/>
    <path id="path-54" d="M791 408 L927 510" fill="none" stroke="#afafaf" stroke-width="4" stroke-opacity="1" stroke-linejoin="round" stroke-linecap="round"/>
    <path id="path-55" d="M779 417 L859 477" fill="none" stroke="#0ec9b0" stroke-width="4" stroke-opacity="1" stroke-linejoin="round" stroke-linecap="round"/>
    <path id="path-56" d="M867 483 L871 486" fill="none" stroke="#22a5fb" stroke-width="4" stroke-opacity="1" stroke-linejoin="round" stroke-linecap="round"/>
    <path id="path-57" d="M791 444 L875 507" fill="none" stroke="#afafaf" stroke-width="4" stroke-opacity="1" stroke-linejoin="round" stroke-linecap="round"/>
    <path id="path-58" d="M779 453 L855 510" fill="none" stroke="#eeeeee" stroke-width="4" stroke-opacity="1" stroke-linejoin="round" stroke-linecap="round"/>
    <path id="path-59" d="M743 444 L755 453" fill="none" stroke="#0ec9b0" stroke-width="4" stroke-opacity="1" stroke-linejoin="round" stroke-linecap="round"/>
    <path id="path-60" d="M763 459 L767 462" fill="none" stroke="#22a5fb" stroke-width="4" stroke-opacity="1" stroke-linejoin="round" stroke-linecap="round"/>
    <path id="path-61" d="M755 471 L819 519" fill="none" stroke="#afafaf" stroke-width="4" stroke-opacity="1" stroke-linejoin="round" stroke-linecap="round"/>
    <path id="path-62" d="M743 480 L815 534" fill="none" stroke="#eeeeee" stroke-width="4" stroke-opacity="1" stroke-linejoin="round" stroke-linecap="round"/>
    <path id="path-63" d="M691 459 L695 462" fill="none" stroke="#22a5fb" stroke-width="4" stroke-opacity="1" stroke-linejoin="round" stroke-linecap="round"/>
    <path id="path-64" d="M671 462 L675 465" fill="none" stroke="#22a5fb" stroke-width="4" stroke-opacity="1" stroke-linejoin="round" stroke-linecap="round"/>
   </g>
   <path id="path-65" d="M1250 395 L902 656" fill="none" stroke="#424242" stroke-width="1" stroke-opacity="1" stroke-linejoin="round" stroke-linecap="round"/>
  </g>
  <g id="scroll-bar">
   <path id="path-66" d="M1435 533.005 L1443 539.005 1095 800.002 1087 794.005 Z" fill="#3c3c3c" fill-opacity="1" stroke="none"/>
   <path id="path-67" d="M1415 548.006 L1423 554.006 1387 581.002 1379 575.006 Z" fill="#4b4b4b" fill-opacity="1" stroke="none"/>
  </g>
  <g id="control-buttons">
   <path id="path-68" d="M893 80.28 C893 77.364 890.314 75 887 75 883.686 75 881 77.364 881 80.28 881 83.196 883.686 85.56 887 85.56 890.314 85.56 893 83.196 893 80.28 Z" fill="#a9a9a9" fill-opacity="1" stroke="none"/>
   <path id="path-69" d="M907.5 90.5 C907.5 87.463 904.702 85 901.25 85 897.798 85 895 87.463 895 90.5 895 93.538 897.798 96 901.25 96 904.702 96 907.5 93.538 907.5 90.5 Z" fill="#a9a9a9" fill-opacity="1" stroke="none"/>
   <path id="path-70" d="M922.5 101.5 C922.5 98.463 919.702 96 916.25 96 912.798 96 910 98.463 910 101.5 910 104.538 912.798 107 916.25 107 919.702 107 922.5 104.538 922.5 101.5 Z" fill="#a9a9a9" fill-opacity="1" stroke="none"/>
  </g>
  <g id="tab-bar">
   <path id="path-71" d="M1015 188.005 L1463 524.005 1446 537.001 998 201.005 Z" fill="#333333" fill-opacity="1" stroke="none"/>
   <g id="inactive-tab-3">
    <path id="path-72" d="M1207 332.006 L1271 380.006 1254 393.002 1190 345.006 Z" fill="#404040" fill-opacity="1" stroke="#454545" stroke-width="1" stroke-opacity="1" stroke-linejoin="round" stroke-linecap="round"/>
    <path id="path-73" d="M1206 345 L1242 372" fill="none" stroke="#cacaca" stroke-width="3" stroke-opacity="1" stroke-linejoin="round" stroke-linecap="round"/>
    <g id="close-button--copy">
     <path id="path-74" d="M1253 376 L1254 384" fill="none" stroke="#525252" stroke-width="2" stroke-opacity="1" stroke-linejoin="round" stroke-linecap="round"/>
     <path id="path-75" d="M1249 380 L1258 380" fill="none" stroke="#525252" stroke-width="2" stroke-opacity="1" stroke-linejoin="round" stroke-linecap="round"/>
    </g>
   </g>
   <g id="inactive-tab-2">
    <path id="path-76" d="M1143 284.006 L1207 332.006 1190 345.002 1126 297.006 Z" fill="#404040" fill-opacity="1" stroke="#454545" stroke-width="1" stroke-opacity="1" stroke-linejoin="round" stroke-linecap="round"/>
    <path id="path-77" d="M1142 297 L1178 324" fill="none" stroke="#cacaca" stroke-width="3" stroke-opacity="1" stroke-linejoin="round" stroke-linecap="round"/>
    <g id="close-button-">
     <path id="path-78" d="M1189 328 L1190 336" fill="none" stroke="#525252" stroke-width="2" stroke-opacity="1" stroke-linejoin="round" stroke-linecap="round"/>
     <path id="path-79" d="M1185 332 L1194 332" fill="none" stroke="#525252" stroke-width="2" stroke-opacity="1" stroke-linejoin="round" stroke-linecap="round"/>
    </g>
   </g>
   <g id="inactive-tab-1">
    <path id="path-80" d="M1079 236.006 L1143 284.006 1126 297.002 1062 249.006 Z" fill="#404040" fill-opacity="1" stroke="#454545" stroke-width="1" stroke-opacity="1" stroke-linejoin="round" stroke-linecap="round"/>
    <path id="path-81" d="M1078 249 L1114 276" fill="none" stroke="#cacaca" stroke-width="3" stroke-opacity="1" stroke-linejoin="round" stroke-linecap="round"/>
    <g id="close-button">
     <path id="path-82" d="M1125 280 L1126 288" fill="none" stroke="#525252" stroke-width="2" stroke-opacity="1" stroke-linejoin="round" stroke-linecap="round"/>
     <path id="path-83" d="M1121 284 L1130 284" fill="none" stroke="#525252" stroke-width="2" stroke-opacity="1" stroke-linejoin="round" stroke-linecap="round"/>
    </g>
   </g>
   <g id="active-tab">
    <path id="path-84" d="M1015 188.006 L1079 236.006 1062 249.002 998 201.006 Z" fill="#4b4b4b" fill-opacity="1" stroke="#474747" stroke-width="1" stroke-opacity="1" stroke-linejoin="round" stroke-linecap="round"/>
    <defs>
     <linearGradient id="linear-gradient-3" gradientUnits="userSpaceOnUse" x1="1014" y1="214.5" x2="1050" y2="214.5">
      <stop offset="0" stop-color="#22a5fb" stop-opacity="1"/>
      <stop offset="1" stop-color="#0ec9b0" stop-opacity="1"/>
     </linearGradient>
    </defs>
    <path id="path-85" d="M1014 201 L1050 228" fill="none" stroke-width="3" stroke-opacity="1" stroke="url(#linear-gradient-3)" stroke-linecap="round"/>
    <g id="close-button-1">
     <path id="path-86" d="M1061 232 L1062 240" fill="none" stroke="#5c5c5c" stroke-width="2" stroke-opacity="1" stroke-linejoin="round" stroke-linecap="round"/>
     <path id="path-87" d="M1057 236 L1066 236" fill="none" stroke="#5c5c5c" stroke-width="2" stroke-opacity="1" stroke-linejoin="round" stroke-linecap="round"/>
    </g>
   </g>
  </g>
 </g>
 <path id="path-88" d="M462 68.003 L1062 518.003 1062 528 662 828 62 378 62 368.003 Z" fill="#000000" fill-opacity="0.5" stroke="none" filter="url(#blurEdge)"/>
 <g id="browser">
  <path id="path-89" d="M462 68.003 L1062 518.003 1062 528 662 828 62 378 62 368.003 Z" fill="#dddcdc" fill-opacity="1" stroke="none"/>
  <path id="path-90" d="M62 368.001 L662 818.001 662 828.001 62 378.001 Z" fill="#a9a9a9" fill-opacity="1" stroke="none"/>
  <path id="path-91" d="M1062 518.002 L1062 528.002 662 828.001 662 818.002 Z" fill="#c0c0c0" fill-opacity="1" stroke="none"/>
  <defs>
   <linearGradient id="linear-gradient-4" gradientUnits="userSpaceOnUse" x1="60.109" y1="333.234" x2="1074.031" y2="553.063">
    <stop offset="0" stop-color="#dedede" stop-opacity="1"/>
    <stop offset="1" stop-color="#dddddd" stop-opacity="1"/>
   </linearGradient>
  </defs>
  <path id="path-92" d="M462 68.001 L1062 518.001 662 818 62 368.001 Z" fill-opacity="1" fill="url(#linear-gradient-4)" stroke="none"/>
  <g id="control-buttons-1">
   <path id="path-93" d="M468 83.28 C468 80.364 465.314 78 462 78 458.686 78 456 80.364 456 83.28 456 86.196 458.686 88.56 462 88.56 465.314 88.56 468 86.196 468 83.28 Z" fill="#a9a9a9" fill-opacity="1" stroke="none"/>
   <path id="path-94" d="M482.5 93.5 C482.5 90.463 479.702 88 476.25 88 472.798 88 470 90.463 470 93.5 470 96.538 472.798 99 476.25 99 479.702 99 482.5 96.538 482.5 93.5 Z" fill="#a9a9a9" fill-opacity="1" stroke="none"/>
   <path id="path-95" d="M497.5 104.5 C497.5 101.463 494.702 99 491.25 99 487.798 99 485 101.463 485 104.5 485 107.538 487.798 110 491.25 110 494.702 110 497.5 107.538 497.5 104.5 Z" fill="#a9a9a9" fill-opacity="1" stroke="none"/>
  </g>
  <g id="web">
   <path id="path-96" d="M442 83.001 L1042 533.001 662 818 62 368.001 Z" fill="#ffffff" fill-opacity="1" stroke="none"/>
   <g id="legal">
    <path id="path-97" d="M428 594 L464 621" fill="none" stroke="#f5f5f5" stroke-width="8" stroke-opacity="1" stroke-linejoin="round" stroke-linecap="round"/>
    <path id="path-98" d="M364 546 L400 573" fill="none" stroke="#f5f5f5" stroke-width="8" stroke-opacity="1" stroke-linejoin="round" stroke-linecap="round"/>
    <path id="path-99" d="M300 498 L336 525" fill="none" stroke="#f5f5f5" stroke-width="8" stroke-opacity="1" stroke-linejoin="round" stroke-linecap="round"/>
   </g>
   <g id="login">
    <path id="path-100" d="M602 285.004 L738 387.004 554 525.001 418 423.004 Z" fill="#e9e9e9" fill-opacity="1" stroke="none"/>
    <g id="login-button">
     <defs>
      <linearGradient id="linear-gradient-5" gradientUnits="userSpaceOnUse" x1="497.862" y1="477.455" x2="571.878" y2="493.575">
       <stop offset="0" stop-color="#22a5fb" stop-opacity="1"/>
       <stop offset="1" stop-color="#0ec9b0" stop-opacity="1"/>
      </linearGradient>
     </defs>
     <path id="path-101" d="M515 458.007 L571 500.007 554 513.002 498 471.007 Z" fill-opacity="1" fill="url(#linear-gradient-5)" stroke="none"/>
     <path id="path-102" d="M516 472 L552 499" fill="none" stroke="#ffffff" stroke-width="4" stroke-opacity="0.668" stroke-linejoin="round" stroke-linecap="round"/>
    </g>
    <g id="password-field">
     <path id="path-103" d="M505 397.007 L585 457.007 568 470.002 488 410.007 Z" fill="#ffffff" fill-opacity="1" stroke="none"/>
     <g id="password">
      <path id="path-104" d="M509.346 409.019 C509.346 406.8 507.03 405 504.173 405 501.316 405 499 406.8 499 409.019 499 411.239 501.316 413.039 504.173 413.039 507.03 413.039 509.346 411.239 509.346 409.019 Z" fill="#dddddd" fill-opacity="1" stroke="none"/>
      <path id="path-105" d="M517.346 415.019 C517.346 412.8 515.03 411 512.173 411 509.316 411 507 412.8 507 415.019 507 417.239 509.316 419.039 512.173 419.039 515.03 419.039 517.346 417.239 517.346 415.019 Z" fill="#dddddd" fill-opacity="1" stroke="none"/>
      <path id="path-106" d="M525.346 421.019 C525.346 418.8 523.03 417 520.173 417 517.316 417 515 418.8 515 421.019 515 423.239 517.316 425.039 520.173 425.039 523.03 425.039 525.346 423.239 525.346 421.019 Z" fill="#dddddd" fill-opacity="1" stroke="none"/>
      <path id="path-107" d="M533.346 427.019 C533.346 424.8 531.03 423 528.173 423 525.316 423 523 424.8 523 427.019 523 429.239 525.316 431.039 528.173 431.039 531.03 431.039 533.346 429.239 533.346 427.019 Z" fill="#dddddd" fill-opacity="1" stroke="none"/>
      <path id="path-108" d="M541.346 433.019 C541.346 430.8 539.03 429 536.173 429 533.316 429 531 430.8 531 433.019 531 435.239 533.316 437.039 536.173 437.039 539.03 437.039 541.346 435.239 541.346 433.019 Z" fill="#dddddd" fill-opacity="1" stroke="none"/>
      <path id="path-109" d="M549.346 439.019 C549.346 436.8 547.03 435 544.173 435 541.316 435 539 436.8 539 439.019 539 441.239 541.316 443.039 544.173 443.039 547.03 443.039 549.346 441.239 549.346 439.019 Z" fill="#dddddd" fill-opacity="1" stroke="none"/>
     </g>
    </g>
    <g id="username-field">
     <path id="path-110" d="M532 376.007 L612 436.007 595 449.002 515 389.007 Z" fill="#ffffff" fill-opacity="1" stroke="none"/>
     <path id="path-111" d="M530 388 L566 415" fill="none" stroke="#dbdbdb" stroke-width="8" stroke-opacity="1" stroke-linejoin="round" stroke-linecap="round"/>
    </g>
    <g id="logo">
     <path id="path-112" d="M659 374.019 C659 355.783 639.972 341 616.5 341 593.028 341 574 355.783 574 374.019 574 392.255 593.028 407.039 616.5 407.039 639.972 407.039 659 392.255 659 374.019 Z" fill="#ffffff" fill-opacity="1" stroke="none"/>
     <path id="path-113" d="M592 362 L622 361" fill="none" stroke="#e9e9e9" stroke-width="8" stroke-opacity="1" stroke-linejoin="round" stroke-linecap="round"/>
     <path id="path-114" d="M613 385 L643 384" fill="none" stroke="#e9e9e9" stroke-width="8" stroke-opacity="1" stroke-linejoin="round" stroke-linecap="round"/>
     <path id="path-115" d="M589 374 L645 372" fill="none" stroke="#e9e9e9" stroke-width="8" stroke-opacity="1" stroke-linejoin="round" stroke-linecap="round"/>
    </g>
   </g>
  </g>
  <g id="navigation-bar">
   <g id="active-tab-1">
    <path id="path-116" d="M514 114.001 C515.672 113.996 517 115.001 517 115.001 L602.014 179.022 C602.014 179.022 603.994 180.34 604 182.001 604.005 183.705 603 184 603 184 L581 201.002 489 132.011 511 115 C511 115 512.325 114.006 514 114.001 Z" fill="#f6f6f5" fill-opacity="1" stroke="none"/>
    <defs>
     <linearGradient id="linear-gradient-6" gradientUnits="userSpaceOnUse" x1="512" y1="143.5" x2="564" y2="143.5">
      <stop offset="0" stop-color="#22a5fb" stop-opacity="1"/>
      <stop offset="1" stop-color="#0ec9b0" stop-opacity="1"/>
     </linearGradient>
    </defs>
    <path id="path-117" d="M512 124 L564 163" fill="none" stroke-width="3" stroke-opacity="1" stroke="url(#linear-gradient-6)" stroke-linecap="round"/>
    <g id="close-button-2">
     <path id="path-118" d="M589 179 L590.5 186" fill="none" stroke="#d2d2d2" stroke-width="1.99" stroke-opacity="1" stroke-linejoin="round" stroke-linecap="round"/>
     <path id="path-119" d="M586.125 182.5 L594 182.5" fill="none" stroke="#d2d2d2" stroke-width="1.99" stroke-opacity="1" stroke-linejoin="round" stroke-linecap="round"/>
    </g>
   </g>
   <path id="path-120" d="M442 83.009 L1042 533.009 1017 552.002 417 102.009 Z" fill="#f6f6f5" fill-opacity="1" stroke="none"/>
   <g id="url-field">
    <path id="path-121" d="M504.414 136.761 L909.412 440.51 892.537 453.33 487.539 149.586 Z" fill="#ffffff" fill-opacity="1" stroke="none"/>
    <path id="path-122" d="M507.497 143.176 C507.497 138.108 502.209 134 495.686 134 489.163 134 483.875 138.108 483.875 143.176 483.875 148.244 489.163 152.352 495.686 152.352 502.209 152.352 507.497 148.244 507.497 143.176 Z" fill="#ffffff" fill-opacity="1" stroke="none"/>
    <path id="path-123" d="M914 447.824 C914 442.756 908.712 438.648 902.189 438.648 895.666 438.648 890.378 442.756 890.378 447.824 890.378 452.892 895.666 457 902.189 457 908.712 457 914 452.892 914 447.824 Z" fill="#ffffff" fill-opacity="1" stroke="none"/>
    <path id="path-124" d="M499 146 L643 254" fill="none" stroke="#f2f2f2" stroke-width="6" stroke-opacity="1" stroke-linejoin="round" stroke-linecap="round"/>
   </g>
   <g id="forward">
    <path id="path-125" d="M462.567 117.289 L451.388 108.905" fill="none" stroke="#d2d2d2" stroke-width="1.854" stroke-opacity="1" stroke-linejoin="round" stroke-linecap="round"/>
    <path id="path-126" d="M462.567 116.358 L462 110" fill="none" stroke="#d2d2d2" stroke-width="1.854" stroke-opacity="1" stroke-linejoin="round" stroke-linecap="round"/>
    <path id="path-127" d="M461.635 117.289 L454 118" fill="none" stroke="#d2d2d2" stroke-width="1.854" stroke-opacity="1" stroke-linejoin="round" stroke-linecap="round"/>
   </g>
   <g id="back">
    <path id="path-128" d="M434.289 96.397 L445.468 104.781" fill="none" stroke="#d2d2d2" stroke-width="1.854" stroke-opacity="1" stroke-linejoin="round" stroke-linecap="round"/>
    <path id="path-129" d="M434.289 97.329 L434.856 103.686" fill="none" stroke="#d2d2d2" stroke-width="1.854" stroke-opacity="1" stroke-linejoin="round" stroke-linecap="round"/>
    <path id="path-130" d="M435.221 96.397 L442.856 95.686" fill="none" stroke="#d2d2d2" stroke-width="1.854" stroke-opacity="1" stroke-linejoin="round" stroke-linecap="round"/>
   </g>
   <g id="refresh-copy">
    <path id="path-131" d="M482.069 127.854 C482.069 124.621 478.696 122 474.535 122 470.373 122 467 124.621 467 127.854 467 131.087 470.373 133.708 474.535 133.708 478.696 133.708 482.069 131.087 482.069 127.854 Z" fill="none" stroke="#d2d2d2" stroke-width="2" stroke-opacity="1" stroke-linejoin="round" stroke-linecap="round"/>
    <path id="path-132" d="M483.047 136.644 L486.827 132.446 479.395 125.755 475.615 129.953 Z" fill="#f6f6f5" fill-opacity="1" stroke="none"/>
    <path id="path-133" d="M484.103 127.563 L482.651 122.479" fill="none" stroke="#d2d2d2" stroke-width="2" stroke-opacity="1" stroke-linejoin="round" stroke-linecap="round"/>
    <path id="path-134" d="M483.377 128.289 L477.567 127.563" fill="none" stroke="#d2d2d2" stroke-width="2" stroke-opacity="1" stroke-linejoin="round" stroke-linecap="round"/>
   </g>
  </g>
 </g>
 <path id="path-135" d="M661 525.004 L1109 861.004 1109 871.001 761 1132 313 796.002 313 786.004 Z" fill="#070707" fill-opacity="0.5" stroke="none" filter="url(#blurEdge)"/>
 <g id="terminal">
  <path id="path-136" d="M661 525.004 L1109 861.004 1109 871.001 761 1132 313 796.002 313 786.004 Z" fill="#070707" fill-opacity="1" stroke="none"/>
  <path id="path-137" d="M313 786.002 L761 1122.001 761 1132 313 796.002 Z" fill="#171717" fill-opacity="0.93" stroke="none"/>
  <path id="path-138" d="M1109 861.002 L1109 871.002 761 1132 761 1122.001 Z" fill="#070707" fill-opacity="0.801" stroke="none"/>
  <defs>
   <linearGradient id="linear-gradient-7" gradientUnits="userSpaceOnUse" x1="311.495" y1="736.13" x2="1118.577" y2="911.112">
    <stop offset="0" stop-color="#000000" stop-opacity="1"/>
    <stop offset="1" stop-color="#191919" stop-opacity="1"/>
   </linearGradient>
  </defs>
  <path id="path-139" d="M661 525.005 L1109 861.005 761 1122.001 313 786.005 Z" fill-opacity="0.698" fill="url(#linear-gradient-7)" stroke="none"/>
  <defs>
   <linearGradient id="linear-gradient-8" gradientUnits="userSpaceOnUse" x1="628.093" y1="652.317" x2="1114.775" y2="757.834">
    <stop offset="0" stop-color="#000000" stop-opacity="1"/>
    <stop offset="1" stop-color="#191919" stop-opacity="1"/>
   </linearGradient>
  </defs>
  <path id="path-140" d="M661 525.006 L1109 861.006 1077 885.002 629 549.006 Z" fill-opacity="1" fill="url(#linear-gradient-8)" stroke="none"/>
  <g id="window-title">
   <path id="path-141" d="M827 666 L907 726" fill="none" stroke="#ebebeb" stroke-width="5" stroke-opacity="1" stroke-linejoin="round" stroke-linecap="round"/>
   <path id="path-142" d="M803 648 L815 657" fill="none" stroke="#ebebeb" stroke-width="5" stroke-opacity="1" stroke-linejoin="round" stroke-linecap="round"/>
  </g>
  <path id="path-143" d="M619.475 579.63 C619.961 579.257 620.194 578.815 620.174 578.306 620.154 577.797 619.86 577.139 619.293 576.332 618.472 575.232 618.071 574.279 618.09 573.472 618.108 572.665 618.543 571.934 619.392 571.28 620.258 570.614 621.228 570.255 622.304 570.203 623.38 570.151 624.427 570.412 625.446 570.986 L627.179 569.652 628.4 570.528 626.659 571.869 C627.456 572.621 627.798 573.421 627.686 574.267 627.574 575.113 626.978 575.953 625.896 576.785 L624.388 575.703 C625.132 575.13 625.54 574.543 625.612 573.943 625.683 573.343 625.408 572.82 624.785 572.373 624.135 571.906 623.475 571.674 622.806 571.676 622.138 571.679 621.513 571.904 620.932 572.351 620.394 572.765 620.147 573.226 620.191 573.732 620.235 574.239 620.543 574.892 621.116 575.691 621.688 576.49 622.05 577.179 622.204 577.756 622.357 578.333 622.336 578.861 622.14 579.341 621.945 579.821 621.567 580.276 621.008 580.707 620.116 581.393 619.121 581.747 618.023 581.767 616.924 581.787 615.825 581.477 614.725 580.836 L613.213 582 612 581.129 613.512 579.965 C612.585 579.167 612.138 578.326 612.171 577.443 612.204 576.56 612.743 575.716 613.788 574.912 L615.304 576 C614.571 576.565 614.206 577.143 614.209 577.734 614.212 578.325 614.58 578.883 615.312 579.409 616.028 579.923 616.757 580.199 617.499 580.237 618.241 580.275 618.9 580.073 619.475 579.63 Z" fill="#ebebeb" fill-opacity="1" stroke="none"/>
  <g id="scroll-bar-1">
   <path id="path-144" d="M1068 880 L1076 886 761 1122.002 753 1116.006 Z" fill="#2e2e2e" fill-opacity="1" stroke="none"/>
   <path id="path-145" d="M789 1089.006 L797 1095.006 761 1122.002 753 1116.006 Z" fill="#4b4b4b" fill-opacity="1" stroke="none"/>
  </g>
  <g id="control-buttons-2">
   <path id="path-146" d="M667 537.28 C667 534.364 664.314 532 661 532 657.686 532 655 534.364 655 537.28 655 540.196 657.686 542.56 661 542.56 664.314 542.56 667 540.196 667 537.28 Z" fill="#a9a9a9" fill-opacity="1" stroke="none"/>
   <path id="path-147" d="M681.5 547.5 C681.5 544.463 678.702 542 675.25 542 671.798 542 669 544.463 669 547.5 669 550.538 671.798 553 675.25 553 678.702 553 681.5 550.538 681.5 547.5 Z" fill="#a9a9a9" fill-opacity="1" stroke="none"/>
   <path id="path-148" d="M696.5 558.5 C696.5 555.463 693.702 553 690.25 553 686.798 553 684 555.463 684 558.5 684 561.538 686.798 564 690.25 564 693.702 564 696.5 561.538 696.5 558.5 Z" fill="#a9a9a9" fill-opacity="1" stroke="none"/>
  </g>
  <g id="tab-bar-copy">
   <path id="path-149" d="M641 540.006 L1089 876.006 1076 886 628 550 Z" fill="#1e1e1e" fill-opacity="1" stroke="none"/>
   <g id="inactive-tab-2-1">
    <path id="path-150" d="M769 636.007 L833 684.007 820 694 756 646 Z" fill="#4b4b4b" fill-opacity="0.304" stroke="#474747" stroke-width="1" stroke-opacity="0.355" stroke-linejoin="round" stroke-linecap="round"/>
    <path id="path-151" d="M767 645 L803 672" fill="none" stroke="#cacaca" stroke-width="3" stroke-opacity="1" stroke-linejoin="round" stroke-linecap="round"/>
    <g id="close-button--1">
     <path id="path-152" d="M819 680 L820 688" fill="none" stroke="#525252" stroke-width="2" stroke-opacity="1" stroke-linejoin="round" stroke-linecap="round"/>
     <path id="path-153" d="M815 684 L824 684" fill="none" stroke="#525252" stroke-width="2" stroke-opacity="1" stroke-linejoin="round" stroke-linecap="round"/>
    </g>
   </g>
   <g id="inactive-tab-1-1">
    <path id="path-154" d="M705 588.007 L769 636.007 756 646 692 598 Z" fill="#4b4b4b" fill-opacity="0.304" stroke="#474747" stroke-width="1" stroke-opacity="0.355" stroke-linejoin="round" stroke-linecap="round"/>
    <path id="path-155" d="M703 597 L739 624" fill="none" stroke="#cacaca" stroke-width="3" stroke-opacity="1" stroke-linejoin="round" stroke-linecap="round"/>
    <g id="close-button-3">
     <path id="path-156" d="M755 632 L756 640" fill="none" stroke="#525252" stroke-width="2" stroke-opacity="1" stroke-linejoin="round" stroke-linecap="round"/>
     <path id="path-157" d="M751 636 L760 636" fill="none" stroke="#525252" stroke-width="2" stroke-opacity="1" stroke-linejoin="round" stroke-linecap="round"/>
    </g>
   </g>
   <g id="active-tab-2">
    <path id="path-158" d="M641 540.007 L705 588.007 692 598 628 550 Z" fill="#4b4b4b" fill-opacity="0.304" stroke="#474747" stroke-width="1" stroke-opacity="0.355" stroke-linejoin="round" stroke-linecap="round"/>
    <defs>
     <linearGradient id="linear-gradient-9" gradientUnits="userSpaceOnUse" x1="639" y1="562.5" x2="675" y2="562.5">
      <stop offset="0" stop-color="#22a5fb" stop-opacity="1"/>
      <stop offset="1" stop-color="#0ec9b0" stop-opacity="1"/>
     </linearGradient>
    </defs>
    <path id="path-159" d="M639 549 L675 576" fill="none" stroke-width="3" stroke-opacity="1" stroke="url(#linear-gradient-9)" stroke-linecap="round"/>
    <g id="close-button-4">
     <path id="path-160" d="M691 584 L692 592" fill="none" stroke="#5c5c5c" stroke-width="2" stroke-opacity="1" stroke-linejoin="round" stroke-linecap="round"/>
     <path id="path-161" d="M687 588 L696 588" fill="none" stroke="#5c5c5c" stroke-width="2" stroke-opacity="1" stroke-linejoin="round" stroke-linecap="round"/>
    </g>
   </g>
  </g>
  <path class="terminal-cursor" id="path-162" d="M634 578.008 L642 584.008 630 594 622 588.001 Z" fill="#ffffff" fill-opacity="1" stroke="none"/>
 </g>
</svg>
