<?xml version="1.0" encoding="UTF-8"?>
<svg width="1000px" height="1000px" viewBox="0 0 1000 1000" xmlns="http://www.w3.org/2000/svg" xmlns:xlink="http://www.w3.org/1999/xlink" version="1.1">
 <!-- Generated by Pixelmator Pro 1.3.2 -->
 <defs>
  <linearGradient id="linear-gradient" gradientUnits="userSpaceOnUse" x1="135.869" y1="909.104" x2="857.001" y2="86.566">
   <stop offset="0" stop-color="#0ec9b0" stop-opacity="1"/>
   <stop offset="1" stop-color="#22a5fb" stop-opacity="1"/>
  </linearGradient>
 </defs>
 <path id="path" d="M1000 500 C1000 223.858 776.142 0 500 0 223.858 0 0 223.858 0 500 0 776.142 223.858 1000 500 1000 776.142 1000 1000 776.142 1000 500 Z" fill-opacity="1" fill="url(#linear-gradient)" stroke="none"/>
 <g id="new-group-copy">
  <path id="path-1" d="M510 293 L717 638" fill="none" stroke="#d5fff9" stroke-width="40" stroke-opacity="1" stroke-linejoin="round"/>
  <path id="path-2" d="M509 294 L302 639" fill="none" stroke="#d5fff9" stroke-width="40" stroke-opacity="1" stroke-linejoin="round"/>
  <path id="path-3" d="M427 639 C427 569.964 371.036 514 302 514 232.964 514 177 569.964 177 639 177 708.036 232.964 764 302 764 371.036 764 427 708.036 427 639 Z" fill="#d5fff9" fill-opacity="1" stroke="none"/>
  <path id="path-4" d="M823 639 C823 569.964 767.036 514 698 514 628.964 514 573 569.964 573 639 573 708.036 628.964 764 698 764 767.036 764 823 708.036 823 639 Z" fill="#d5fff9" fill-opacity="1" stroke="none"/>
  <path id="path-5" d="M634 294 C634 224.964 578.036 169 509 169 439.964 169 384 224.964 384 294 384 363.036 439.964 419 509 419 578.036 419 634 363.036 634 294 Z" fill="#d5fff9" fill-opacity="1" stroke="none"/>
 </g>
</svg>
