<?xml version="1.0" encoding="UTF-8"?>
<svg width="1000px" height="1000px" viewBox="0 0 1000 1000" xmlns="http://www.w3.org/2000/svg" xmlns:xlink="http://www.w3.org/1999/xlink" version="1.1">
 <!-- Generated by Pixelmator Pro 1.3.2 -->
 <defs>
  <linearGradient id="linear-gradient" gradientUnits="userSpaceOnUse" x1="135.869" y1="909.104" x2="857.001" y2="86.566">
   <stop offset="0" stop-color="#0ec9b0" stop-opacity="1"/>
   <stop offset="1" stop-color="#22a5fb" stop-opacity="1"/>
  </linearGradient>
 </defs>
 <path id="path" d="M1000 500 C1000 223.858 776.142 0 500 0 223.858 0 0 223.858 0 500 0 776.142 223.858 1000 500 1000 776.142 1000 1000 776.142 1000 500 Z" fill-opacity="1" fill="url(#linear-gradient)" stroke="none"/>
 <path id="path-1" d="M728 238 L443 356" fill="none" stroke="#d5fff9" stroke-width="40" stroke-opacity="1" stroke-linejoin="round"/>
 <path id="path-2" d="M595.587 557.536 L713.413 272.464" fill="none" stroke="#d5fff9" stroke-width="40" stroke-opacity="1" stroke-linejoin="round"/>
 <path id="path-3" d="M319.975 207.118 C289.562 256.099 272 313.894 272 375.791 272 552.638 415.363 696 592.21 696 666.485 696 734.854 670.711 789.176 628.273 864.192 569.669 376.456 116.152 319.975 207.118 Z" fill="#d5fff9" fill-opacity="1" stroke="none"/>
 <path id="path-4" d="M312.996 664 C291.44 681.672 287.495 722.059 282.998 754 277.864 790.458 273 864 273 864 L472.994 864 C472.994 864 467.984 790.479 462.999 754 458.7 722.543 454.026 681.241 432.996 664 402.062 638.64 343.93 638.641 312.996 664 Z" fill="#d5fff9" fill-opacity="1" stroke="none"/>
 <path id="path-5" d="M778.928 235.036 C778.928 204.68 754.32 180.072 723.964 180.072 693.608 180.072 669 204.68 669 235.036 669 265.392 693.608 290 723.964 290 754.32 290 778.928 265.392 778.928 235.036 Z" fill="#d5fff9" fill-opacity="1" stroke="none"/>
</svg>
