<?xml version="1.0" encoding="UTF-8"?>
<svg width="1000px" height="1000px" viewBox="0 0 1000 1000" xmlns="http://www.w3.org/2000/svg" xmlns:xlink="http://www.w3.org/1999/xlink" version="1.1">
 <!-- Generated by Pixelmator Pro 1.3.2 -->
 <defs>
  <linearGradient id="linear-gradient" gradientUnits="userSpaceOnUse" x1="135.869" y1="909.104" x2="857.001" y2="86.566">
   <stop offset="0" stop-color="#0ec9b0" stop-opacity="1"/>
   <stop offset="1" stop-color="#22a5fb" stop-opacity="1"/>
  </linearGradient>
 </defs>
 <path id="path" d="M1000 500 C1000 223.858 776.142 0 500 0 223.858 0 0 223.858 0 500 0 776.142 223.858 1000 500 1000 776.142 1000 1000 776.142 1000 500 Z" fill-opacity="1" fill="url(#linear-gradient)" stroke="none"/>
 <g id="computer-medium-light">
  <path id="path-1" d="M206.853 271 C198.65 271 192 277.65 192 285.853 L192 642.326 C192 650.529 198.65 657.179 206.853 657.179 L793.548 657.179 C801.751 657.179 808.401 650.529 808.401 642.326 L808.401 285.853 C808.401 277.65 801.751 271 793.548 271 Z" fill="#ffffff" fill-opacity="1" stroke="none"/>
  <path id="path-2" d="M243.549 310.841 C235.346 310.841 228.696 317.491 228.696 325.694 L228.696 603.184 C228.696 611.387 235.346 618.037 243.549 618.037 L755.891 618.037 C764.094 618.037 770.744 611.387 770.744 603.184 L770.744 325.694 C770.744 317.491 764.094 310.841 755.891 310.841 Z" fill="#c0eaf3" fill-opacity="1" stroke="none"/>
  <path id="path-3" d="M395.061 618.037 L755.891 618.037 C764.094 618.037 770.744 611.387 770.744 603.184 L770.744 325.694 C770.744 317.491 764.094 310.841 755.891 310.841 L605.401 310.841 Z" fill="#d8f8ff" fill-opacity="1" stroke="none"/>
  <path id="path-4" d="M388.059 805.709 L610.852 805.709 C610.852 805.709 573.722 731.445 582.633 657.181 582.635 657.166 419.244 657.13 419.248 657.183 425.195 731.449 388.059 805.709 388.059 805.709 Z" fill="#c5e3e9" fill-opacity="1" stroke="none"/>
  <path id="path-5" d="M372.508 782.644 C370.457 782.644 368.795 784.306 368.795 786.357 L368.795 808.287 C368.795 810.338 370.457 812 372.508 812 L627.587 812 C629.638 812 631.3 810.338 631.3 808.287 L631.3 786.357 C631.3 784.306 629.638 782.644 627.587 782.644 Z" fill="#ffffff" fill-opacity="1" stroke="none"/>
 </g>
</svg>
