<?xml version="1.0" encoding="UTF-8"?>
<svg width="1024px" height="1024px" viewBox="0 0 1024 1024" xmlns="http://www.w3.org/2000/svg" xmlns:xlink="http://www.w3.org/1999/xlink" version="1.1">
 <!-- Generated by Pixelmator Pro 1.3.2 -->
 <path id="path" d="M258.263 952.214 L4.763 513.139 258.263 74.065 765.263 74.065 1018.763 513.139 765.263 952.214 258.263 952.214 Z M304.722 871.634 L718.724 871.634 925.724 513.098 718.724 154.565 304.724 154.565 97.724 513.098 304.722 871.634 Z" fill="#ffffff" fill-opacity="1" stroke="none"/>
 <path id="path-1" d="M327.788 194.805 L696.212 194.805 742.4 274.805 281.6 274.805 Z" fill="#ffffff" fill-opacity="1" stroke="none"/>
 <path id="path-2" d="M880.424 513.87 L696.212 832.935 603.836 832.935 834.236 433.87 Z" fill="#ffffff" fill-opacity="1" stroke="none"/>
 <path id="path-3" d="M327.787 832.935 L143.576 513.87 189.764 433.87 420.164 832.935 Z" fill="#ffffff" fill-opacity="1" stroke="none"/>
 <path id="path-4" d="M696.212 194.805 L773.581 328.812 727.393 408.812 603.836 194.805 Z" fill="#ffffff" fill-opacity="1" stroke="none"/>
 <path id="path-5" d="M696.212 832.935 L541.474 832.935 495.286 752.935 742.4 752.935 Z" fill="#ffffff" fill-opacity="1" stroke="none"/>
 <path id="path-6" d="M143.575 513.87 L220.944 379.863 313.321 379.863 189.764 593.87 Z" fill="#ffffff" fill-opacity="1" stroke="none"/>
</svg>
