<?xml version="1.0" encoding="UTF-8"?>
<svg width="1150px" height="1000px" viewBox="0 0 1150 1000" xmlns="http://www.w3.org/2000/svg" xmlns:xlink="http://www.w3.org/1999/xlink" version="1.1">
 <filter id="blurEdge">
  <feGaussianBlur in="SourceGraphic" stdDeviation="10" />
 </filter>
 <!-- Generated by Pixelmator Pro 1.3.4 -->
 <path id="path" d="M617 942 L593 924 593 864 57 462 57 362.002 457 62.002 1033.002 494.004 1073 464.004 1097 482.004 1097 582 1057 612 657 912 617 942 Z" fill="#000000" fill-opacity="0.499" stroke="none" filter="url(#blurEdge)"/>
 <g id="server-copy">
  <path id="path-1" d="M457 62.003 L1057 512.003 1057 612 657 912 57 462.001 57 362.003 Z" fill="#d0d1d0" fill-opacity="1" stroke="none"/>
  <defs>
   <linearGradient id="linear-gradient" gradientUnits="userSpaceOnUse" x1="67.453" y1="411.977" x2="627.258" y2="830.102">
    <stop offset="0" stop-color="#a0a0a0" stop-opacity="1"/>
    <stop offset="1" stop-color="#bdbdbd" stop-opacity="1"/>
   </linearGradient>
  </defs>
  <path id="path-2" d="M57 362.002 L657 812.002 657 912.001 57 462.002 Z" fill-opacity="1" fill="url(#linear-gradient)" stroke="none"/>
  <g id="mounting-holes-1">
   <path id="path-3" d="M564.844 795.521 C565.035 797.335 566.018 797.998 567.132 797.881 568.246 797.764 569.069 796.911 568.879 795.098 568.688 793.285 567.705 792.621 566.591 792.738 565.477 792.855 564.654 793.709 564.844 795.521 Z" fill="#858585" fill-opacity="1" stroke="none"/>
   <path id="path-4" d="M564.844 814.521 C565.035 816.335 566.018 816.998 567.132 816.881 568.246 816.764 569.069 815.911 568.879 814.098 568.688 812.285 567.705 811.621 566.591 811.738 565.477 811.855 564.654 812.709 564.844 814.521 Z" fill="#858585" fill-opacity="1" stroke="none"/>
   <path id="path-5" d="M544.844 780.521 C545.035 782.335 546.018 782.998 547.132 782.881 548.246 782.764 549.069 781.911 548.879 780.098 548.688 778.285 547.705 777.621 546.591 777.738 545.477 777.855 544.654 778.709 544.844 780.521 Z" fill="#858585" fill-opacity="1" stroke="none"/>
   <path id="path-6" d="M544.844 799.521 C545.035 801.335 546.018 801.998 547.132 801.881 548.246 801.764 549.069 800.911 548.879 799.098 548.688 797.285 547.705 796.621 546.591 796.738 545.477 796.855 544.654 797.709 544.844 799.521 Z" fill="#858585" fill-opacity="1" stroke="none"/>
   <path id="path-7" d="M524.844 765.521 C525.035 767.335 526.018 767.998 527.132 767.881 528.246 767.764 529.069 766.911 528.879 765.098 528.688 763.285 527.705 762.621 526.591 762.738 525.477 762.855 524.654 763.709 524.844 765.521 Z" fill="#858585" fill-opacity="1" stroke="none"/>
   <path id="path-8" d="M524.844 784.521 C525.035 786.335 526.018 786.998 527.132 786.881 528.246 786.764 529.069 785.911 528.879 784.098 528.688 782.285 527.705 781.621 526.591 781.738 525.477 781.855 524.654 782.709 524.844 784.521 Z" fill="#858585" fill-opacity="1" stroke="none"/>
  </g>
  <g id="mounting-holes-2">
   <path id="path-9" d="M164.844 495.521 C165.035 497.335 166.018 497.998 167.132 497.881 168.246 497.764 169.069 496.911 168.879 495.098 168.688 493.285 167.705 492.621 166.591 492.738 165.477 492.855 164.654 493.709 164.844 495.521 Z" fill="#6d6d6d" fill-opacity="1" stroke="none"/>
   <path id="path-10" d="M164.844 514.521 C165.035 516.335 166.018 516.998 167.132 516.881 168.246 516.764 169.069 515.911 168.879 514.098 168.688 512.285 167.705 511.621 166.591 511.738 165.477 511.855 164.654 512.709 164.844 514.521 Z" fill="#6d6d6d" fill-opacity="1" stroke="none"/>
   <path id="path-11" d="M144.844 480.521 C145.035 482.335 146.018 482.998 147.132 482.881 148.246 482.764 149.069 481.911 148.879 480.098 148.688 478.285 147.705 477.621 146.591 477.738 145.477 477.855 144.654 478.709 144.844 480.521 Z" fill="#6d6d6d" fill-opacity="1" stroke="none"/>
   <path id="path-12" d="M144.844 499.521 C145.035 501.335 146.018 501.998 147.132 501.881 148.246 501.764 149.069 500.911 148.879 499.098 148.688 497.285 147.705 496.621 146.591 496.738 145.477 496.855 144.654 497.709 144.844 499.521 Z" fill="#6d6d6d" fill-opacity="1" stroke="none"/>
   <path id="path-13" d="M124.844 465.521 C125.035 467.335 126.018 467.998 127.132 467.881 128.246 467.764 129.069 466.911 128.879 465.098 128.688 463.285 127.705 462.621 126.591 462.738 125.477 462.855 124.654 463.709 124.844 465.521 Z" fill="#6d6d6d" fill-opacity="1" stroke="none"/>
   <path id="path-14" d="M124.844 484.521 C125.035 486.335 126.018 486.998 127.132 486.881 128.246 486.764 129.069 485.911 128.879 484.098 128.688 482.285 127.705 481.621 126.591 481.738 125.477 481.855 124.654 482.709 124.844 484.521 Z" fill="#6d6d6d" fill-opacity="1" stroke="none"/>
  </g>
  <g id="top-panel">
   <path id="path-15" d="M53 360.002 L657 813.002 657 833.001 53 380.002 Z" fill="#797979" fill-opacity="1" stroke="none"/>
   <defs>
    <linearGradient id="linear-gradient-1" gradientUnits="userSpaceOnUse" x1="63.523" y1="401.981" x2="627.06" y2="761.568">
     <stop offset="0" stop-color="#a2a2a2" stop-opacity="1"/>
     <stop offset="1" stop-color="#bdbdbd" stop-opacity="1"/>
    </linearGradient>
   </defs>
   <path id="path-16" d="M53 359.002 L657 812.002 657 832.001 53 379.002 Z" fill-opacity="1" fill="url(#linear-gradient-1)" stroke="none"/>
   <defs>
    <linearGradient id="linear-gradient-2" gradientUnits="userSpaceOnUse" x1="51.102" y1="325.295" x2="1069.079" y2="546.003">
     <stop offset="0" stop-color="#cbcbcb" stop-opacity="1"/>
     <stop offset="1" stop-color="#d7d7d7" stop-opacity="1"/>
    </linearGradient>
   </defs>
   <path id="path-17" d="M453 59.001 L1057 512.001 657 812 53 359.001 Z" fill-opacity="1" fill="url(#linear-gradient-2)" stroke="none"/>
  </g>
  <g id="front-panel">
   <path id="path-18" d="M1073 464.003 L1097 482.003 1097 582 617 942 593 924.001 593 824.003 Z" fill="#000000" fill-opacity="1" stroke="none"/>
   <defs>
    <linearGradient id="linear-gradient-3" gradientUnits="userSpaceOnUse" x1="634.57" y1="870.273" x2="1086.363" y2="543.289">
     <stop offset="0" stop-color="#202020" stop-opacity="1"/>
     <stop offset="1" stop-color="#1b1b1b" stop-opacity="1"/>
    </linearGradient>
   </defs>
   <path id="path-19" d="M1097 482.002 L1097 582.002 617 942.001 617 842.002 Z" fill-opacity="1" fill="url(#linear-gradient-3)" stroke="none"/>
   <g id="drive-bay-2">
    <defs>
     <linearGradient id="linear-gradient-4" gradientUnits="userSpaceOnUse" x1="927.393" y1="689.73" x2="1040.341" y2="597.323">
      <stop offset="0" stop-color="#212121" stop-opacity="1"/>
      <stop offset="1" stop-color="#212121" stop-opacity="1"/>
     </linearGradient>
    </defs>
    <path id="path-20" d="M1043 580.003 L1043 620.003 923 710.001 923 670.003 Z" fill-opacity="1" fill="url(#linear-gradient-4)" stroke="none"/>
    <g id="ventilation">
     <path id="path-21" d="M1028 595.005 L1028 600.005 928 675.001 928 670.005 Z" fill="#1c1c1c" fill-opacity="1" stroke="none"/>
     <path id="path-22" d="M1028 604 L1028 609 928 683.997 928 679 Z" fill="#1c1c1c" fill-opacity="1" stroke="none"/>
     <path id="path-23" d="M1028 614 L1028 619 928 693.997 928 689 Z" fill="#1c1c1c" fill-opacity="1" stroke="none"/>
     <path id="path-24" d="M1028 623.005 L1028 628.005 928 703.001 928 698.005 Z" fill="#1c1c1c" fill-opacity="1" stroke="none"/>
    </g>
    <defs>
     <linearGradient id="linear-gradient-5" gradientUnits="userSpaceOnUse" x1="1035.588" y1="596.802" x2="1035.603" y2="618.64">
      <stop offset="0" stop-color="#22a5fb" stop-opacity="1"/>
      <stop offset="1" stop-color="#0ec9b0" stop-opacity="1"/>
     </linearGradient>
    </defs>
    <path id="path-25" d="M1039 586.004 L1039 620.004 1031 626.001 1031 592.004 Z" fill-opacity="1" fill="url(#linear-gradient-5)" stroke="#2a2a2a" stroke-width="1" stroke-opacity="1" stroke-linejoin="round" stroke-linecap="round"/>
    <defs>
     <linearGradient id="linear-gradient-6" gradientUnits="userSpaceOnUse" x1="923.539" y1="655.502" x2="1040.252" y2="589.394">
      <stop offset="0" stop-color="#2d2d2d" stop-opacity="1"/>
      <stop offset="1" stop-color="#2e2e2e" stop-opacity="1"/>
     </linearGradient>
    </defs>
    <path id="path-26" d="M1043 580.004 L1039 577.004 919 667.001 923 670.003 Z" fill-opacity="1" fill="url(#linear-gradient-6)" stroke="none"/>
    <defs>
     <linearGradient id="linear-gradient-7" gradientUnits="userSpaceOnUse" x1="919.146" y1="703.296" x2="922.911" y2="672.732">
      <stop offset="0" stop-color="#2e2e2e" stop-opacity="1"/>
      <stop offset="1" stop-color="#2f2f2f" stop-opacity="1"/>
     </linearGradient>
    </defs>
    <path id="path-27" d="M919 667.004 L919 707.004 923 710.001 923 670.004 Z" fill-opacity="1" fill="url(#linear-gradient-7)" stroke="none"/>
   </g>
   <g id="drive-bay-1">
    <defs>
     <linearGradient id="linear-gradient-8" gradientUnits="userSpaceOnUse" x1="927.393" y1="643.73" x2="1040.341" y2="551.323">
      <stop offset="0" stop-color="#212121" stop-opacity="1"/>
      <stop offset="1" stop-color="#212121" stop-opacity="1"/>
     </linearGradient>
    </defs>
    <path id="path-28" d="M1043 534.003 L1043 574.003 923 664.001 923 624.003 Z" fill-opacity="1" fill="url(#linear-gradient-8)" stroke="none"/>
    <g id="ventilation-1">
     <path id="path-29" d="M1028 549.005 L1028 554.005 928 629.001 928 624.005 Z" fill="#1e1e1e" fill-opacity="1" stroke="none"/>
     <path id="path-30" d="M1028 558 L1028 563 928 637.997 928 633 Z" fill="#1e1e1e" fill-opacity="1" stroke="none"/>
     <path id="path-31" d="M1028 568 L1028 573 928 647.997 928 643 Z" fill="#1e1e1e" fill-opacity="1" stroke="none"/>
     <path id="path-32" d="M1028 577.005 L1028 582.005 928 657.001 928 652.005 Z" fill="#1e1e1e" fill-opacity="1" stroke="none"/>
    </g>
    <defs>
     <linearGradient id="linear-gradient-9" gradientUnits="userSpaceOnUse" x1="1035.588" y1="550.802" x2="1035.603" y2="572.64">
      <stop offset="0" stop-color="#22a5fb" stop-opacity="1"/>
      <stop offset="1" stop-color="#0ec9b0" stop-opacity="1"/>
     </linearGradient>
    </defs>
    <path id="path-33" d="M1039 540.004 L1039 574.004 1031 580.001 1031 546.004 Z" fill-opacity="1" fill="url(#linear-gradient-9)" stroke="#2a2a2a" stroke-width="1" stroke-opacity="1" stroke-linejoin="round" stroke-linecap="round"/>
    <defs>
     <linearGradient id="linear-gradient-10" gradientUnits="userSpaceOnUse" x1="923.539" y1="609.502" x2="1040.252" y2="543.394">
      <stop offset="0" stop-color="#2d2d2d" stop-opacity="1"/>
      <stop offset="1" stop-color="#2e2e2e" stop-opacity="1"/>
     </linearGradient>
    </defs>
    <path id="path-34" d="M1043 534.004 L1039 531.004 919 621.001 923 624.003 Z" fill-opacity="1" fill="url(#linear-gradient-10)" stroke="none"/>
    <defs>
     <linearGradient id="linear-gradient-11" gradientUnits="userSpaceOnUse" x1="919.146" y1="657.296" x2="922.911" y2="626.732">
      <stop offset="0" stop-color="#2e2e2e" stop-opacity="1"/>
      <stop offset="1" stop-color="#2f2f2f" stop-opacity="1"/>
     </linearGradient>
    </defs>
    <path id="path-35" d="M919 621.004 L919 661.004 923 664.001 923 624.004 Z" fill-opacity="1" fill="url(#linear-gradient-11)" stroke="none"/>
   </g>
   <path id="path-36" d="M593 824.004 L593 924.004 617 942.001 617 842.004 Z" fill="#070707" fill-opacity="1" stroke="none"/>
   <defs>
    <linearGradient id="linear-gradient-12" gradientUnits="userSpaceOnUse" x1="815.926" y1="646.95" x2="846.51" y2="666.335">
     <stop offset="0" stop-color="#212121" stop-opacity="1"/>
     <stop offset="1" stop-color="#212121" stop-opacity="1"/>
    </linearGradient>
   </defs>
   <path id="path-37" d="M1033 494.004 L1057 512.004 657 812.001 633 794.001 Z" fill-opacity="1" fill="url(#linear-gradient-12)" stroke="none"/>
   <defs>
    <linearGradient id="linear-gradient-13" gradientUnits="userSpaceOnUse" x1="810.441" y1="645.807" x2="846.795" y2="668.849">
     <stop offset="0" stop-color="#212121" stop-opacity="1"/>
     <stop offset="1" stop-color="#212121" stop-opacity="1"/>
    </linearGradient>
   </defs>
   <path id="path-38" d="M1073 464.002 L1097 482.002 617 842 593 824.002 Z" fill-opacity="1" fill="url(#linear-gradient-13)" stroke="none"/>
   <g id="ventilation-2">
    <path id="path-39" d="M768.731 755.165 L770.213 759.219 768.245 765.865 764.793 768.458 763.311 764.404 765.28 757.758 Z" fill="#000000" fill-opacity="1" stroke="none"/>
    <path id="path-40" d="M752.731 751.165 L754.213 755.219 752.245 761.865 748.793 764.458 747.311 760.404 749.28 753.758 Z" fill="#000000" fill-opacity="1" stroke="none"/>
    <path id="path-41" d="M744.731 749.165 L746.213 753.219 744.245 759.865 740.793 762.458 739.311 758.404 741.28 751.758 Z" fill="#000000" fill-opacity="1" stroke="none"/>
    <path id="path-42" d="M760.731 753.165 L762.213 757.219 760.245 763.865 756.793 766.458 755.311 762.404 757.28 755.758 Z" fill="#000000" fill-opacity="1" stroke="none"/>
    <path id="path-43" d="M792.731 761.165 L794.213 765.219 792.245 771.865 788.793 774.458 787.311 770.404 789.28 763.758 Z" fill="#000000" fill-opacity="1" stroke="none"/>
    <path id="path-44" d="M776.731 757.165 L778.213 761.219 776.245 767.865 772.793 770.458 771.311 766.404 773.28 759.758 Z" fill="#000000" fill-opacity="1" stroke="none"/>
    <path id="path-45" d="M784.731 759.165 L786.213 763.219 784.245 769.865 780.793 772.458 779.311 768.404 781.28 761.758 Z" fill="#000000" fill-opacity="1" stroke="none"/>
    <path id="path-46" d="M816.731 767.165 L818.213 771.219 816.245 777.865 812.793 780.458 811.311 776.404 813.28 769.758 Z" fill="#000000" fill-opacity="1" stroke="none"/>
    <path id="path-47" d="M800.731 763.165 L802.213 767.219 800.245 773.865 796.793 776.458 795.311 772.404 797.28 765.758 Z" fill="#000000" fill-opacity="1" stroke="none"/>
    <path id="path-48" d="M808.731 765.165 L810.213 769.219 808.245 775.865 804.793 778.458 803.311 774.404 805.28 767.758 Z" fill="#000000" fill-opacity="1" stroke="none"/>
    <path id="path-49" d="M824.731 769.165 L826.213 773.219 824.245 779.865 820.793 782.458 819.311 778.404 821.28 771.758 Z" fill="#000000" fill-opacity="1" stroke="none"/>
    <path id="path-50" d="M809.731 778.165 L811.213 782.219 809.245 788.865 805.793 791.458 804.311 787.404 806.28 780.758 Z" fill="#000000" fill-opacity="1" stroke="none"/>
    <path id="path-51" d="M793.731 774.165 L795.213 778.219 793.245 784.865 789.793 787.458 788.311 783.404 790.28 776.758 Z" fill="#000000" fill-opacity="1" stroke="none"/>
    <path id="path-52" d="M801.731 776.165 L803.213 780.219 801.245 786.865 797.793 789.458 796.311 785.404 798.28 778.758 Z" fill="#000000" fill-opacity="1" stroke="none"/>
    <path id="path-53" d="M823.731 756.165 L825.213 760.219 823.245 766.865 819.793 769.458 818.311 765.404 820.28 758.758 Z" fill="#000000" fill-opacity="1" stroke="none"/>
    <path id="path-54" d="M807.731 752.165 L809.213 756.219 807.245 762.865 803.793 765.458 802.311 761.404 804.28 754.758 Z" fill="#000000" fill-opacity="1" stroke="none"/>
    <path id="path-55" d="M815.731 754.165 L817.213 758.219 815.245 764.865 811.793 767.458 810.311 763.404 812.28 756.758 Z" fill="#000000" fill-opacity="1" stroke="none"/>
    <path id="path-56" d="M831.731 758.165 L833.213 762.219 831.245 768.865 827.793 771.458 826.311 767.404 828.28 760.758 Z" fill="#000000" fill-opacity="1" stroke="none"/>
    <path id="path-57" d="M839.731 760.165 L841.213 764.219 839.245 770.865 835.793 773.458 834.311 769.404 836.28 762.758 Z" fill="#000000" fill-opacity="1" stroke="none"/>
    <path id="path-58" d="M775.731 744.165 L777.213 748.219 775.245 754.865 771.793 757.458 770.311 753.404 772.28 746.758 Z" fill="#000000" fill-opacity="1" stroke="none"/>
    <path id="path-59" d="M759.731 740.165 L761.213 744.219 759.245 750.865 755.793 753.458 754.311 749.404 756.28 742.758 Z" fill="#000000" fill-opacity="1" stroke="none"/>
    <path id="path-60" d="M767.731 742.165 L769.213 746.219 767.245 752.865 763.793 755.458 762.311 751.404 764.28 744.758 Z" fill="#000000" fill-opacity="1" stroke="none"/>
    <path id="path-61" d="M799.731 750.165 L801.213 754.219 799.245 760.865 795.793 763.458 794.311 759.404 796.28 752.758 Z" fill="#000000" fill-opacity="1" stroke="none"/>
    <path id="path-62" d="M783.731 746.165 L785.213 750.219 783.245 756.865 779.793 759.458 778.311 755.404 780.28 748.758 Z" fill="#000000" fill-opacity="1" stroke="none"/>
    <path id="path-63" d="M791.731 748.165 L793.213 752.219 791.245 758.865 787.793 761.458 786.311 757.404 788.28 750.758 Z" fill="#000000" fill-opacity="1" stroke="none"/>
    <path id="path-64" d="M761.731 766.165 L763.213 770.219 761.245 776.865 757.793 779.458 756.311 775.404 758.28 768.758 Z" fill="#000000" fill-opacity="1" stroke="none"/>
    <path id="path-65" d="M745.731 762.165 L747.213 766.219 745.245 772.865 741.793 775.458 740.311 771.404 742.28 764.758 Z" fill="#000000" fill-opacity="1" stroke="none"/>
    <path id="path-66" d="M753.731 764.165 L755.213 768.219 753.245 774.865 749.793 777.458 748.311 773.404 750.28 766.758 Z" fill="#000000" fill-opacity="1" stroke="none"/>
    <path id="path-67" d="M729.731 759.165 L731.213 763.219 729.245 769.865 725.793 772.458 724.311 768.404 726.28 761.758 Z" fill="#000000" fill-opacity="1" stroke="none"/>
    <path id="path-68" d="M737.731 761.165 L739.213 765.219 737.245 771.865 733.793 774.458 732.311 770.404 734.28 763.758 Z" fill="#000000" fill-opacity="1" stroke="none"/>
    <path id="path-69" d="M785.731 772.165 L787.213 776.219 785.245 782.865 781.793 785.458 780.311 781.404 782.28 774.758 Z" fill="#000000" fill-opacity="1" stroke="none"/>
    <path id="path-70" d="M769.731 768.165 L771.213 772.219 769.245 778.865 765.793 781.458 764.311 777.404 766.28 770.758 Z" fill="#000000" fill-opacity="1" stroke="none"/>
    <path id="path-71" d="M777.731 770.165 L779.213 774.219 777.245 780.865 773.793 783.458 772.311 779.404 774.28 772.758 Z" fill="#000000" fill-opacity="1" stroke="none"/>
   </g>
   <g id="ventilation-1">
    <path id="path-72" d="M717.731 793.165 L719.213 797.219 717.245 803.865 713.793 806.458 712.311 802.404 714.28 795.758 Z" fill="#000000" fill-opacity="1" stroke="none"/>
    <path id="path-73" d="M701.731 789.165 L703.213 793.219 701.245 799.865 697.793 802.458 696.311 798.404 698.28 791.758 Z" fill="#000000" fill-opacity="1" stroke="none"/>
    <path id="path-74" d="M693.731 787.165 L695.213 791.219 693.245 797.865 689.793 800.458 688.311 796.404 690.28 789.758 Z" fill="#000000" fill-opacity="1" stroke="none"/>
    <path id="path-75" d="M709.731 791.165 L711.213 795.219 709.245 801.865 705.793 804.458 704.311 800.404 706.28 793.758 Z" fill="#000000" fill-opacity="1" stroke="none"/>
    <path id="path-76" d="M741.731 799.165 L743.213 803.219 741.245 809.865 737.793 812.458 736.311 808.404 738.28 801.758 Z" fill="#000000" fill-opacity="1" stroke="none"/>
    <path id="path-77" d="M725.731 795.165 L727.213 799.219 725.245 805.865 721.793 808.458 720.311 804.404 722.28 797.758 Z" fill="#000000" fill-opacity="1" stroke="none"/>
    <path id="path-78" d="M733.731 797.165 L735.213 801.219 733.245 807.865 729.793 810.458 728.311 806.404 730.28 799.758 Z" fill="#000000" fill-opacity="1" stroke="none"/>
    <path id="path-79" d="M765.731 805.165 L767.213 809.219 765.245 815.865 761.793 818.458 760.311 814.404 762.28 807.758 Z" fill="#000000" fill-opacity="1" stroke="none"/>
    <path id="path-80" d="M749.731 801.165 L751.213 805.219 749.245 811.865 745.793 814.458 744.311 810.404 746.28 803.758 Z" fill="#000000" fill-opacity="1" stroke="none"/>
    <path id="path-81" d="M757.731 803.165 L759.213 807.219 757.245 813.865 753.793 816.458 752.311 812.404 754.28 805.758 Z" fill="#000000" fill-opacity="1" stroke="none"/>
    <path id="path-82" d="M773.731 807.165 L775.213 811.219 773.245 817.865 769.793 820.458 768.311 816.404 770.28 809.758 Z" fill="#000000" fill-opacity="1" stroke="none"/>
    <path id="path-83" d="M758.731 816.165 L760.213 820.219 758.245 826.865 754.793 829.458 753.311 825.404 755.28 818.758 Z" fill="#000000" fill-opacity="1" stroke="none"/>
    <path id="path-84" d="M742.731 812.165 L744.213 816.219 742.245 822.865 738.793 825.458 737.311 821.404 739.28 814.758 Z" fill="#000000" fill-opacity="1" stroke="none"/>
    <path id="path-85" d="M750.731 814.165 L752.213 818.219 750.245 824.865 746.793 827.458 745.311 823.404 747.28 816.758 Z" fill="#000000" fill-opacity="1" stroke="none"/>
    <path id="path-86" d="M772.731 794.165 L774.213 798.219 772.245 804.865 768.793 807.458 767.311 803.404 769.28 796.758 Z" fill="#000000" fill-opacity="1" stroke="none"/>
    <path id="path-87" d="M756.731 790.165 L758.213 794.219 756.245 800.865 752.793 803.458 751.311 799.404 753.28 792.758 Z" fill="#000000" fill-opacity="1" stroke="none"/>
    <path id="path-88" d="M764.731 792.165 L766.213 796.219 764.245 802.865 760.793 805.458 759.311 801.404 761.28 794.758 Z" fill="#000000" fill-opacity="1" stroke="none"/>
    <path id="path-89" d="M780.731 796.165 L782.213 800.219 780.245 806.865 776.793 809.458 775.311 805.404 777.28 798.758 Z" fill="#000000" fill-opacity="1" stroke="none"/>
    <path id="path-90" d="M788.731 798.165 L790.213 802.219 788.245 808.865 784.793 811.458 783.311 807.404 785.28 800.758 Z" fill="#000000" fill-opacity="1" stroke="none"/>
    <path id="path-91" d="M724.731 782.165 L726.213 786.219 724.245 792.865 720.793 795.458 719.311 791.404 721.28 784.758 Z" fill="#000000" fill-opacity="1" stroke="none"/>
    <path id="path-92" d="M708.731 778.165 L710.213 782.219 708.245 788.865 704.793 791.458 703.311 787.404 705.28 780.758 Z" fill="#000000" fill-opacity="1" stroke="none"/>
    <path id="path-93" d="M716.731 780.165 L718.213 784.219 716.245 790.865 712.793 793.458 711.311 789.404 713.28 782.758 Z" fill="#000000" fill-opacity="1" stroke="none"/>
    <path id="path-94" d="M748.731 788.165 L750.213 792.219 748.245 798.865 744.793 801.458 743.311 797.404 745.28 790.758 Z" fill="#000000" fill-opacity="1" stroke="none"/>
    <path id="path-95" d="M732.731 784.165 L734.213 788.219 732.245 794.865 728.793 797.458 727.311 793.404 729.28 786.758 Z" fill="#000000" fill-opacity="1" stroke="none"/>
    <path id="path-96" d="M740.731 786.165 L742.213 790.219 740.245 796.865 736.793 799.458 735.311 795.404 737.28 788.758 Z" fill="#000000" fill-opacity="1" stroke="none"/>
    <path id="path-97" d="M710.731 804.165 L712.213 808.219 710.245 814.865 706.793 817.458 705.311 813.404 707.28 806.758 Z" fill="#000000" fill-opacity="1" stroke="none"/>
    <path id="path-98" d="M694.731 800.165 L696.213 804.219 694.245 810.865 690.793 813.458 689.311 809.404 691.28 802.758 Z" fill="#000000" fill-opacity="1" stroke="none"/>
    <path id="path-99" d="M702.731 802.165 L704.213 806.219 702.245 812.865 698.793 815.458 697.311 811.404 699.28 804.758 Z" fill="#000000" fill-opacity="1" stroke="none"/>
    <path id="path-100" d="M678.731 797.165 L680.213 801.219 678.245 807.865 674.793 810.458 673.311 806.404 675.28 799.758 Z" fill="#000000" fill-opacity="1" stroke="none"/>
    <path id="path-101" d="M686.731 799.165 L688.213 803.219 686.245 809.865 682.793 812.458 681.311 808.404 683.28 801.758 Z" fill="#000000" fill-opacity="1" stroke="none"/>
    <path id="path-102" d="M734.731 810.165 L736.213 814.219 734.245 820.865 730.793 823.458 729.311 819.404 731.28 812.758 Z" fill="#000000" fill-opacity="1" stroke="none"/>
    <path id="path-103" d="M718.731 806.165 L720.213 810.219 718.245 816.865 714.793 819.458 713.311 815.404 715.28 808.758 Z" fill="#000000" fill-opacity="1" stroke="none"/>
    <path id="path-104" d="M726.731 808.165 L728.213 812.219 726.245 818.865 722.793 821.458 721.311 817.404 723.28 810.758 Z" fill="#000000" fill-opacity="1" stroke="none"/>
   </g>
   <g id="ventilation-1-copy">
    <path id="path-105" d="M818.731 718.165 L820.213 722.219 818.245 728.865 814.793 731.458 813.311 727.404 815.28 720.758 Z" fill="#000000" fill-opacity="1" stroke="none"/>
    <path id="path-106" d="M802.731 714.165 L804.213 718.219 802.245 724.865 798.793 727.458 797.311 723.404 799.28 716.758 Z" fill="#000000" fill-opacity="1" stroke="none"/>
    <path id="path-107" d="M794.731 712.165 L796.213 716.219 794.245 722.865 790.793 725.458 789.311 721.404 791.28 714.758 Z" fill="#000000" fill-opacity="1" stroke="none"/>
    <path id="path-108" d="M810.731 716.165 L812.213 720.219 810.245 726.865 806.793 729.458 805.311 725.404 807.28 718.758 Z" fill="#000000" fill-opacity="1" stroke="none"/>
    <path id="path-109" d="M842.731 724.165 L844.213 728.219 842.245 734.865 838.793 737.458 837.311 733.404 839.28 726.758 Z" fill="#000000" fill-opacity="1" stroke="none"/>
    <path id="path-110" d="M826.731 720.165 L828.213 724.219 826.245 730.865 822.793 733.458 821.311 729.404 823.28 722.758 Z" fill="#000000" fill-opacity="1" stroke="none"/>
    <path id="path-111" d="M834.731 722.165 L836.213 726.219 834.245 732.865 830.793 735.458 829.311 731.404 831.28 724.758 Z" fill="#000000" fill-opacity="1" stroke="none"/>
    <path id="path-112" d="M866.731 730.165 L868.213 734.219 866.245 740.865 862.793 743.458 861.311 739.404 863.28 732.758 Z" fill="#000000" fill-opacity="1" stroke="none"/>
    <path id="path-113" d="M850.731 726.165 L852.213 730.219 850.245 736.865 846.793 739.458 845.311 735.404 847.28 728.758 Z" fill="#000000" fill-opacity="1" stroke="none"/>
    <path id="path-114" d="M858.731 728.165 L860.213 732.219 858.245 738.865 854.793 741.458 853.311 737.404 855.28 730.758 Z" fill="#000000" fill-opacity="1" stroke="none"/>
    <path id="path-115" d="M874.731 732.165 L876.213 736.219 874.245 742.865 870.793 745.458 869.311 741.404 871.28 734.758 Z" fill="#000000" fill-opacity="1" stroke="none"/>
    <path id="path-116" d="M859.731 741.165 L861.213 745.219 859.245 751.865 855.793 754.458 854.311 750.404 856.28 743.758 Z" fill="#000000" fill-opacity="1" stroke="none"/>
    <path id="path-117" d="M843.731 737.165 L845.213 741.219 843.245 747.865 839.793 750.458 838.311 746.404 840.28 739.758 Z" fill="#000000" fill-opacity="1" stroke="none"/>
    <path id="path-118" d="M851.731 739.165 L853.213 743.219 851.245 749.865 847.793 752.458 846.311 748.404 848.28 741.758 Z" fill="#000000" fill-opacity="1" stroke="none"/>
    <path id="path-119" d="M873.731 719.165 L875.213 723.219 873.245 729.865 869.793 732.458 868.311 728.404 870.28 721.758 Z" fill="#000000" fill-opacity="1" stroke="none"/>
    <path id="path-120" d="M857.731 715.165 L859.213 719.219 857.245 725.865 853.793 728.458 852.311 724.404 854.28 717.758 Z" fill="#000000" fill-opacity="1" stroke="none"/>
    <path id="path-121" d="M865.731 717.165 L867.213 721.219 865.245 727.865 861.793 730.458 860.311 726.404 862.28 719.758 Z" fill="#000000" fill-opacity="1" stroke="none"/>
    <path id="path-122" d="M881.731 721.165 L883.213 725.219 881.245 731.865 877.793 734.458 876.311 730.404 878.28 723.758 Z" fill="#000000" fill-opacity="1" stroke="none"/>
    <path id="path-123" d="M889.731 723.165 L891.213 727.219 889.245 733.865 885.793 736.458 884.311 732.404 886.28 725.758 Z" fill="#000000" fill-opacity="1" stroke="none"/>
    <path id="path-124" d="M825.731 707.165 L827.213 711.219 825.245 717.865 821.793 720.458 820.311 716.404 822.28 709.758 Z" fill="#000000" fill-opacity="1" stroke="none"/>
    <path id="path-125" d="M809.731 703.165 L811.213 707.219 809.245 713.865 805.793 716.458 804.311 712.404 806.28 705.758 Z" fill="#000000" fill-opacity="1" stroke="none"/>
    <path id="path-126" d="M817.731 705.165 L819.213 709.219 817.245 715.865 813.793 718.458 812.311 714.404 814.28 707.758 Z" fill="#000000" fill-opacity="1" stroke="none"/>
    <path id="path-127" d="M849.731 713.165 L851.213 717.219 849.245 723.865 845.793 726.458 844.311 722.404 846.28 715.758 Z" fill="#000000" fill-opacity="1" stroke="none"/>
    <path id="path-128" d="M833.731 709.165 L835.213 713.219 833.245 719.865 829.793 722.458 828.311 718.404 830.28 711.758 Z" fill="#000000" fill-opacity="1" stroke="none"/>
    <path id="path-129" d="M841.731 711.165 L843.213 715.219 841.245 721.865 837.793 724.458 836.311 720.404 838.28 713.758 Z" fill="#000000" fill-opacity="1" stroke="none"/>
    <path id="path-130" d="M811.731 729.165 L813.213 733.219 811.245 739.865 807.793 742.458 806.311 738.404 808.28 731.758 Z" fill="#000000" fill-opacity="1" stroke="none"/>
    <path id="path-131" d="M795.731 725.165 L797.213 729.219 795.245 735.865 791.793 738.458 790.311 734.404 792.28 727.758 Z" fill="#000000" fill-opacity="1" stroke="none"/>
    <path id="path-132" d="M803.731 727.165 L805.213 731.219 803.245 737.865 799.793 740.458 798.311 736.404 800.28 729.758 Z" fill="#000000" fill-opacity="1" stroke="none"/>
    <path id="path-133" d="M779.731 722.165 L781.213 726.219 779.245 732.865 775.793 735.458 774.311 731.404 776.28 724.758 Z" fill="#000000" fill-opacity="1" stroke="none"/>
    <path id="path-134" d="M787.731 724.165 L789.213 728.219 787.245 734.865 783.793 737.458 782.311 733.404 784.28 726.758 Z" fill="#000000" fill-opacity="1" stroke="none"/>
    <path id="path-135" d="M835.731 735.165 L837.213 739.219 835.245 745.865 831.793 748.458 830.311 744.404 832.28 737.758 Z" fill="#000000" fill-opacity="1" stroke="none"/>
    <path id="path-136" d="M819.731 731.165 L821.213 735.219 819.245 741.865 815.793 744.458 814.311 740.404 816.28 733.758 Z" fill="#000000" fill-opacity="1" stroke="none"/>
    <path id="path-137" d="M827.731 733.165 L829.213 737.219 827.245 743.865 823.793 746.458 822.311 742.404 824.28 735.758 Z" fill="#000000" fill-opacity="1" stroke="none"/>
   </g>
   <g id="logo">
    <defs>
     <linearGradient id="linear-gradient-14" gradientUnits="userSpaceOnUse" x1="655.171" y1="876.646" x2="685.291" y2="833.997">
      <stop offset="0" stop-color="#d34333" stop-opacity="1"/>
      <stop offset="1" stop-color="#f02c26" stop-opacity="1"/>
     </linearGradient>
    </defs>
    <path id="path-138" d="M686 826.004 L686 862.004 654 886.001 654 850.004 Z" fill-opacity="1" fill="url(#linear-gradient-14)" stroke="#1b1b1b" stroke-width="2" stroke-opacity="1" stroke-linejoin="round" stroke-linecap="round"/>
    <path id="path-139" d="M673.012 845.367 L677.129 850.246 674.608 860.389 666.969 866.652 663 861 665.373 851.631 Z" fill="none" stroke="#d5d5d5" stroke-width="3" stroke-opacity="1" stroke-linejoin="round" stroke-linecap="round"/>
   </g>
   <path id="path-140" d="M1077.879 581.098 C1077.688 579.285 1076.705 578.621 1075.591 578.738 1074.477 578.855 1073.654 579.709 1073.845 581.522 1074.035 583.335 1075.018 583.998 1076.132 583.881 1077.246 583.764 1078.069 582.911 1077.879 581.098 Z" fill="#8fe025" fill-opacity="1" stroke="none"/>
  </g>
  <g id="server-interior">
   <g id="server-hole">
    <defs>
     <linearGradient id="linear-gradient-15" gradientUnits="userSpaceOnUse" x1="284.9" y1="429.93" x2="818.302" y2="430.06">
      <stop offset="0" stop-color="#5a5a5a" stop-opacity="1"/>
      <stop offset="1" stop-color="#676767" stop-opacity="1"/>
     </linearGradient>
    </defs>
    <path id="path-141" d="M553 222.503 L825 426.503 553 630.501 281 426.503 Z" fill-opacity="1" fill="url(#linear-gradient-15)" stroke="none"/>
    <path id="path-142" d="M552.997 222.505 L553 226 284 429 281 426.505 Z" fill="#949494" fill-opacity="1" stroke="none"/>
    <path id="path-143" d="M553.002 222.505 L553 226 822 429 825 426.505 Z" fill="#949494" fill-opacity="1" stroke="none"/>
   </g>
   <path id="path-144" d="M553 327.003 L682 423.753 682 431.814 553 528.563 424 431.814 424 423.753 Z" fill="#000000" fill-opacity="0.5" stroke="none" filter="url(#blurEdge)"/>
   <g id="container">
    <path id="path-145" d="M553 327.003 L682 423.753 682 431.814 553 528.563 424 431.814 424 423.753 Z" fill="#22a5fb" fill-opacity="1" stroke="none"/>
    <path id="path-146" d="M424 423.752 L553 520.502 553 528.564 424 431.815 Z" fill="#22a5fb" fill-opacity="1" stroke="none"/>
    <defs>
     <linearGradient id="linear-gradient-16" gradientUnits="userSpaceOnUse" x1="553" y1="476.158" x2="682" y2="476.158">
      <stop offset="0" stop-color="#1d8dd8" stop-opacity="1"/>
      <stop offset="1" stop-color="#0ca994" stop-opacity="1"/>
     </linearGradient>
    </defs>
    <path id="path-147" d="M682 423.752 L682 431.814 553 528.564 553 520.502 Z" fill-opacity="1" fill="url(#linear-gradient-16)" stroke="none"/>
    <defs>
     <linearGradient id="linear-gradient-17" gradientUnits="userSpaceOnUse" x1="425.85" y1="425.377" x2="678.824" y2="425.439">
      <stop offset="0" stop-color="#22a5fb" stop-opacity="1"/>
      <stop offset="1" stop-color="#0ec9b0" stop-opacity="1"/>
     </linearGradient>
    </defs>
    <path id="path-148" d="M553 327.002 L682 423.752 553 520.501 424 423.752 Z" fill-opacity="1" fill="url(#linear-gradient-17)" stroke="none"/>
    <g id="logo-1">
     <path id="path-149" d="M594 424.019 C594 405.783 574.972 391 551.5 391 528.028 391 509 405.783 509 424.019 509 442.255 528.028 457.039 551.5 457.039 574.972 457.039 594 442.255 594 424.019 Z" fill="#ffffff" fill-opacity="1" stroke="none"/>
     <path id="path-150" d="M527 412 L557 411" fill="none" stroke="#e9e9e9" stroke-width="8" stroke-opacity="1" stroke-linejoin="round" stroke-linecap="round"/>
     <path id="path-151" d="M548 435 L578 434" fill="none" stroke="#e9e9e9" stroke-width="8" stroke-opacity="1" stroke-linejoin="round" stroke-linecap="round"/>
     <path id="path-152" d="M524 424 L580 422" fill="none" stroke="#e9e9e9" stroke-width="8" stroke-opacity="1" stroke-linejoin="round" stroke-linecap="round"/>
    </g>
   </g>
  </g>
 </g>
</svg>
