<?xml version="1.0" encoding="UTF-8"?>
<svg width="1020px" height="769px" viewBox="0 0 1020 769" xmlns="http://www.w3.org/2000/svg" xmlns:xlink="http://www.w3.org/1999/xlink" version="1.1">
 <!-- Generated by Pixelmator Pro 1.3.4 -->
 <g id="editor-ghost-copy">
  <path id="path" d="M410 9.001 L1010 459.001 610 759 10 309.001 Z" fill="none" stroke="#a9a9a9" stroke-width="3" stroke-opacity="1" stroke-linejoin="round" stroke-linecap="round"/>
  <path id="path-1" d="M672 218 L752 278" fill="none" stroke="#a9a9a9" stroke-width="5" stroke-opacity="1" stroke-linejoin="round" stroke-linecap="round"/>
  <g id="status-bar">
   <path id="path-2" d="M26 309 L106 369" fill="none" stroke="#a9a9a9" stroke-width="5" stroke-opacity="1" stroke-linejoin="round" stroke-linecap="round"/>
   <path id="path-3" d="M502 666 L546 699" fill="none" stroke="#a9a9a9" stroke-width="5" stroke-opacity="1" stroke-linejoin="round" stroke-linecap="round"/>
   <path id="path-4" d="M554 705 L610 747" fill="none" stroke="#a9a9a9" stroke-width="5" stroke-opacity="1" stroke-linejoin="round" stroke-linecap="round"/>
  </g>
  <g id="file-drawer">
   <path id="path-5" d="M398 24.003 L534 126.003 166 402 30 300.003 Z" fill="none" stroke="#a9a9a9" stroke-width="2" stroke-opacity="1" stroke-linejoin="round" stroke-linecap="round"/>
   <g id="contents">
    <path id="path-6" d="M390 49 L470 109" fill="none" stroke="#a9a9a9" stroke-width="5" stroke-opacity="1" stroke-linejoin="round" stroke-linecap="round"/>
    <path id="path-7" d="M378 70 L458 130" fill="none" stroke="#a9a9a9" stroke-width="5" stroke-opacity="1" stroke-linejoin="round" stroke-linecap="round"/>
    <path id="path-8" d="M370 94 L442 148" fill="none" stroke="#a9a9a9" stroke-width="5" stroke-opacity="1" stroke-linejoin="round" stroke-linecap="round"/>
    <path id="path-9" d="M338 100 L390 139" fill="none" stroke="#a9a9a9" stroke-width="5" stroke-opacity="1" stroke-linejoin="round" stroke-linecap="round"/>
    <path id="path-10" d="M318 115 L390 169" fill="none" stroke="#a9a9a9" stroke-width="5" stroke-opacity="1" stroke-linejoin="round" stroke-linecap="round"/>
    <path id="path-11" d="M306 136 L386 196" fill="none" stroke="#a9a9a9" stroke-width="5" stroke-opacity="1" stroke-linejoin="round" stroke-linecap="round"/>
    <path id="path-12" d="M286 151 L350 199" fill="none" stroke="#a9a9a9" stroke-width="5" stroke-opacity="1" stroke-linejoin="round" stroke-linecap="round"/>
    <path id="path-13" d="M266 166 L342 223" fill="none" stroke="#a9a9a9" stroke-width="5" stroke-opacity="1" stroke-linejoin="round" stroke-linecap="round"/>
    <path id="path-14" d="M238 175 L290 214" fill="none" stroke="#a9a9a9" stroke-width="5" stroke-opacity="1" stroke-linejoin="round" stroke-linecap="round"/>
    <path id="path-15" d="M226 196 L306 256" fill="none" stroke="#a9a9a9" stroke-width="5" stroke-opacity="1" stroke-linejoin="round" stroke-linecap="round"/>
    <path id="path-16" d="M214 217 L274 262" fill="none" stroke="#a9a9a9" stroke-width="5" stroke-opacity="1" stroke-linejoin="round" stroke-linecap="round"/>
    <path id="path-17" d="M194 232 L270 289" fill="none" stroke="#a9a9a9" stroke-width="5" stroke-opacity="1" stroke-linejoin="round" stroke-linecap="round"/>
    <path id="path-18" d="M158 235 L230 289" fill="none" stroke="#a9a9a9" stroke-width="5" stroke-opacity="1" stroke-linejoin="round" stroke-linecap="round"/>
    <path id="path-19" d="M146 256 L226 316" fill="none" stroke="#a9a9a9" stroke-width="5" stroke-opacity="1" stroke-linejoin="round" stroke-linecap="round"/>
    <path id="path-20" d="M118 265 L174 307" fill="none" stroke="#a9a9a9" stroke-width="5" stroke-opacity="1" stroke-linejoin="round" stroke-linecap="round"/>
    <path id="path-21" d="M98 280 L150 319" fill="none" stroke="#a9a9a9" stroke-width="5" stroke-opacity="1" stroke-linejoin="round" stroke-linecap="round"/>
    <path id="path-22" d="M78 295 L150 349" fill="none" stroke="#a9a9a9" stroke-width="5" stroke-opacity="1" stroke-linejoin="round" stroke-linecap="round"/>
   </g>
  </g>
  <g id="scroll-bar">
   <path id="path-23" d="M958 474.005 L966 480.005 618 741.002 610 735.005 Z" fill="none" stroke="#a9a9a9" stroke-width="1" stroke-opacity="1" stroke-linejoin="round" stroke-linecap="round"/>
   <path id="path-24" d="M938 489.006 L946 495.006 910 522.002 902 516.006 Z" fill="#a9a9a9" fill-opacity="1" stroke="none"/>
  </g>
  <g id="code">
   <path id="path-25" d="M518 144.005 L966 480.005 618 741.001 170 405.005 Z" fill="none" stroke="#a9a9a9" stroke-width="2" stroke-opacity="1" stroke-linejoin="round" stroke-linecap="round"/>
   <g id="contents-1">
    <path id="path-26" d="M518 160 L730 319" fill="none" stroke="#a9a9a9" stroke-width="4" stroke-opacity="1" stroke-linejoin="round" stroke-linecap="round"/>
    <path id="path-27" d="M530 187 L610 247" fill="none" stroke="#a9a9a9" stroke-width="4" stroke-opacity="1" stroke-linejoin="round" stroke-linecap="round"/>
    <path id="path-28" d="M518 196 L586 247" fill="none" stroke="#a9a9a9" stroke-width="4" stroke-opacity="1" stroke-linejoin="round" stroke-linecap="round"/>
    <path id="path-29" d="M594 253 L598 256" fill="none" stroke="#a9a9a9" stroke-width="4" stroke-opacity="1" stroke-linejoin="round" stroke-linecap="round"/>
    <path id="path-30" d="M530 223 L610 283" fill="none" stroke="#a9a9a9" stroke-width="4" stroke-opacity="1" stroke-linejoin="round" stroke-linecap="round"/>
    <path id="path-31" d="M494 214 L510 226" fill="none" stroke="#a9a9a9" stroke-width="4" stroke-opacity="1" stroke-linejoin="round" stroke-linecap="round"/>
    <path id="path-32" d="M518 232 L522 235" fill="none" stroke="#a9a9a9" stroke-width="4" stroke-opacity="1" stroke-linejoin="round" stroke-linecap="round"/>
    <path id="path-33" d="M506 241 L586 301" fill="none" stroke="#a9a9a9" stroke-width="4" stroke-opacity="1" stroke-linejoin="round" stroke-linecap="round"/>
    <path id="path-34" d="M470 232 L474 235" fill="none" stroke="#a9a9a9" stroke-width="4" stroke-opacity="1" stroke-linejoin="round" stroke-linecap="round"/>
    <path id="path-35" d="M446 250 L526 310" fill="none" stroke="#a9a9a9" stroke-width="4" stroke-opacity="1" stroke-linejoin="round" stroke-linecap="round"/>
    <path id="path-36" d="M434 259 L526 328" fill="none" stroke="#a9a9a9" stroke-width="4" stroke-opacity="1" stroke-linejoin="round" stroke-linecap="round"/>
    <path id="path-37" d="M422 268 L494 322" fill="none" stroke="#a9a9a9" stroke-width="4" stroke-opacity="1" stroke-linejoin="round" stroke-linecap="round"/>
    <path id="path-38" d="M386 259 L390 262" fill="none" stroke="#a9a9a9" stroke-width="4" stroke-opacity="1" stroke-linejoin="round" stroke-linecap="round"/>
    <path id="path-39" d="M362 277 L546 415" fill="none" stroke="#a9a9a9" stroke-width="4" stroke-opacity="1" stroke-linejoin="round" stroke-linecap="round"/>
    <path id="path-40" d="M554 421 L558 424" fill="none" stroke="#a9a9a9" stroke-width="4" stroke-opacity="1" stroke-linejoin="round" stroke-linecap="round"/>
    <path id="path-41" d="M738 325 L742 328" fill="none" stroke="#a9a9a9" stroke-width="4" stroke-opacity="1" stroke-linejoin="round" stroke-linecap="round"/>
    <path id="path-42" d="M374 304 L462 370" fill="none" stroke="#a9a9a9" stroke-width="4" stroke-opacity="1" stroke-linejoin="round" stroke-linecap="round"/>
    <path id="path-43" d="M362 313 L438 370" fill="none" stroke="#a9a9a9" stroke-width="4" stroke-opacity="1" stroke-linejoin="round" stroke-linecap="round"/>
    <path id="path-44" d="M350 322 L418 373" fill="none" stroke="#a9a9a9" stroke-width="4" stroke-opacity="1" stroke-linejoin="round" stroke-linecap="round"/>
    <path id="path-45" d="M338 331 L414 388" fill="none" stroke="#a9a9a9" stroke-width="4" stroke-opacity="1" stroke-linejoin="round" stroke-linecap="round"/>
    <path id="path-46" d="M314 349 L450 451" fill="none" stroke="#a9a9a9" stroke-width="4" stroke-opacity="1" stroke-linejoin="round" stroke-linecap="round"/>
    <path id="path-47" d="M302 358 L382 418" fill="none" stroke="#a9a9a9" stroke-width="4" stroke-opacity="1" stroke-linejoin="round" stroke-linecap="round"/>
    <path id="path-48" d="M390 424 L394 427" fill="none" stroke="#a9a9a9" stroke-width="4" stroke-opacity="1" stroke-linejoin="round" stroke-linecap="round"/>
    <path id="path-49" d="M314 385 L398 448" fill="none" stroke="#a9a9a9" stroke-width="4" stroke-opacity="1" stroke-linejoin="round" stroke-linecap="round"/>
    <path id="path-50" d="M302 394 L378 451" fill="none" stroke="#a9a9a9" stroke-width="4" stroke-opacity="1" stroke-linejoin="round" stroke-linecap="round"/>
    <path id="path-51" d="M266 385 L278 394" fill="none" stroke="#a9a9a9" stroke-width="4" stroke-opacity="1" stroke-linejoin="round" stroke-linecap="round"/>
    <path id="path-52" d="M286 400 L290 403" fill="none" stroke="#a9a9a9" stroke-width="4" stroke-opacity="1" stroke-linejoin="round" stroke-linecap="round"/>
    <path id="path-53" d="M278 412 L342 460" fill="none" stroke="#a9a9a9" stroke-width="4" stroke-opacity="1" stroke-linejoin="round" stroke-linecap="round"/>
    <path id="path-54" d="M266 421 L338 475" fill="none" stroke="#a9a9a9" stroke-width="4" stroke-opacity="1" stroke-linejoin="round" stroke-linecap="round"/>
    <path id="path-55" d="M214 400 L218 403" fill="none" stroke="#a9a9a9" stroke-width="4" stroke-opacity="1" stroke-linejoin="round" stroke-linecap="round"/>
    <path id="path-56" d="M194 403 L198 406" fill="none" stroke="#a9a9a9" stroke-width="4" stroke-opacity="1" stroke-linejoin="round" stroke-linecap="round"/>
   </g>
   <path id="path-57" d="M773 336 L425 597" fill="none" stroke="#c9c9c9" stroke-width="1" stroke-opacity="1" stroke-linejoin="round" stroke-linecap="round"/>
  </g>
  <g id="control-buttons">
   <path id="path-58" d="M416 21.28 C416 18.364 413.314 16 410 16 406.686 16 404 18.364 404 21.28 404 24.196 406.686 26.56 410 26.56 413.314 26.56 416 24.196 416 21.28 Z" fill="#a9a9a9" fill-opacity="1" stroke="none"/>
   <path id="path-59" d="M430.5 31.5 C430.5 28.463 427.702 26 424.25 26 420.798 26 418 28.463 418 31.5 418 34.538 420.798 37 424.25 37 427.702 37 430.5 34.538 430.5 31.5 Z" fill="#a9a9a9" fill-opacity="1" stroke="none"/>
   <path id="path-60" d="M445.5 42.5 C445.5 39.463 442.702 37 439.25 37 435.798 37 433 39.463 433 42.5 433 45.538 435.798 48 439.25 48 442.702 48 445.5 45.538 445.5 42.5 Z" fill="#a9a9a9" fill-opacity="1" stroke="none"/>
  </g>
  <g id="tab-bar">
   <path id="path-61" d="M538 129.005 L986 465.005 969 478.001 521 142.005 Z" fill="none" stroke="#a9a9a9" stroke-width="2" stroke-opacity="1" stroke-linejoin="round" stroke-linecap="round"/>
   <g id="inactive-tab-3">
    <path id="path-62" d="M730 273.006 L794 321.006 777 334.002 713 286.006 Z" fill="none" stroke="#a9a9a9" stroke-width="1" stroke-opacity="1" stroke-linejoin="round" stroke-linecap="round"/>
    <path id="path-63" d="M729 286 L765 313" fill="none" stroke="#a9a9a9" stroke-width="3" stroke-opacity="1" stroke-linejoin="round" stroke-linecap="round"/>
    <g id="close-button--copy">
     <path id="path-64" d="M776 317 L777 325" fill="none" stroke="#a9a9a9" stroke-width="2" stroke-opacity="1" stroke-linejoin="round" stroke-linecap="round"/>
     <path id="path-65" d="M772 321 L781 321" fill="none" stroke="#a9a9a9" stroke-width="2" stroke-opacity="1" stroke-linejoin="round" stroke-linecap="round"/>
    </g>
   </g>
   <g id="inactive-tab-2">
    <path id="path-66" d="M666 225.006 L730 273.006 713 286.002 649 238.006 Z" fill="none" stroke="#a9a9a9" stroke-width="1" stroke-opacity="1" stroke-linejoin="round" stroke-linecap="round"/>
    <path id="path-67" d="M665 238 L701 265" fill="none" stroke="#a9a9a9" stroke-width="3" stroke-opacity="1" stroke-linejoin="round" stroke-linecap="round"/>
    <g id="close-button-">
     <path id="path-68" d="M712 269 L713 277" fill="none" stroke="#a9a9a9" stroke-width="2" stroke-opacity="1" stroke-linejoin="round" stroke-linecap="round"/>
     <path id="path-69" d="M708 273 L717 273" fill="none" stroke="#a9a9a9" stroke-width="2" stroke-opacity="1" stroke-linejoin="round" stroke-linecap="round"/>
    </g>
   </g>
   <g id="inactive-tab-1">
    <path id="path-70" d="M602 177.006 L666 225.006 649 238.002 585 190.006 Z" fill="none" stroke="#a9a9a9" stroke-width="1" stroke-opacity="1" stroke-linejoin="round" stroke-linecap="round"/>
    <path id="path-71" d="M601 190 L637 217" fill="none" stroke="#a9a9a9" stroke-width="3" stroke-opacity="1" stroke-linejoin="round" stroke-linecap="round"/>
    <g id="close-button">
     <path id="path-72" d="M648 221 L649 229" fill="none" stroke="#a9a9a9" stroke-width="2" stroke-opacity="1" stroke-linejoin="round" stroke-linecap="round"/>
     <path id="path-73" d="M644 225 L653 225" fill="none" stroke="#a9a9a9" stroke-width="2" stroke-opacity="1" stroke-linejoin="round" stroke-linecap="round"/>
    </g>
   </g>
   <g id="active-tab">
    <path id="path-74" d="M538 129.006 L602 177.006 585 190.002 521 142.006 Z" fill="none" stroke="#a9a9a9" stroke-width="1" stroke-opacity="1" stroke-linejoin="round" stroke-linecap="round"/>
    <path id="path-75" d="M537 142 L573 169" fill="none" stroke="#a9a9a9" stroke-width="3" stroke-opacity="1" stroke-linejoin="round" stroke-linecap="round"/>
    <g id="close-button-1">
     <path id="path-76" d="M584 173 L585 181" fill="none" stroke="#a9a9a9" stroke-width="2" stroke-opacity="1" stroke-linejoin="round" stroke-linecap="round"/>
     <path id="path-77" d="M580 177 L589 177" fill="none" stroke="#a9a9a9" stroke-width="2" stroke-opacity="1" stroke-linejoin="round" stroke-linecap="round"/>
    </g>
   </g>
  </g>
 </g>
</svg>
