<?xml version="1.0" encoding="UTF-8"?>
<svg width="1008px" height="765px" viewBox="0 0 1008 765" xmlns="http://www.w3.org/2000/svg" xmlns:xlink="http://www.w3.org/1999/xlink" version="1.1">
 <!-- Generated by Pixelmator Pro 1.3.4 -->
 <g id="browser-ghost-copy">
  <g id="control-buttons">
   <path id="path" d="M410 22.28 C410 19.364 407.314 17 404 17 400.686 17 398 19.364 398 22.28 398 25.196 400.686 27.56 404 27.56 407.314 27.56 410 25.196 410 22.28 Z" fill="#a9a9a9" fill-opacity="1" stroke="none"/>
   <path id="path-1" d="M424.5 32.5 C424.5 29.463 421.702 27 418.25 27 414.798 27 412 29.463 412 32.5 412 35.538 414.798 38 418.25 38 421.702 38 424.5 35.538 424.5 32.5 Z" fill="#a9a9a9" fill-opacity="1" stroke="none"/>
   <path id="path-2" d="M439.5 43.5 C439.5 40.463 436.702 38 433.25 38 429.798 38 427 40.463 427 43.5 427 46.538 429.798 49 433.25 49 436.702 49 439.5 46.538 439.5 43.5 Z" fill="#a9a9a9" fill-opacity="1" stroke="none"/>
  </g>
  <g id="web">
   <g id="legal">
    <path id="path-3" d="M370 533 L406 560" fill="none" stroke="#a9a9a9" stroke-width="8" stroke-opacity="1" stroke-linejoin="round" stroke-linecap="round"/>
    <path id="path-4" d="M306 485 L342 512" fill="none" stroke="#a9a9a9" stroke-width="8" stroke-opacity="1" stroke-linejoin="round" stroke-linecap="round"/>
    <path id="path-5" d="M242 437 L278 464" fill="none" stroke="#a9a9a9" stroke-width="8" stroke-opacity="1" stroke-linejoin="round" stroke-linecap="round"/>
   </g>
   <g id="login">
    <path id="path-6" d="M544 224.004 L680 326.004 496 464.001 360 362.004 Z" fill="none" stroke="#a9a9a9" stroke-width="2" stroke-opacity="1" stroke-linejoin="round" stroke-linecap="round"/>
    <g id="login-button">
     <path id="path-7" d="M457 397.007 L513 439.007 496 452.002 440 410.007 Z" fill="none" stroke="#a9a9a9" stroke-width="2" stroke-opacity="1" stroke-linejoin="round" stroke-linecap="round"/>
     <path id="path-8" d="M458 411 L494 438" fill="none" stroke="#a9a9a9" stroke-width="4" stroke-opacity="1" stroke-linejoin="round" stroke-linecap="round"/>
    </g>
    <g id="password-field">
     <path id="path-9" d="M447 336.007 L527 396.007 510 409.002 430 349.007 Z" fill="none" stroke="#a9a9a9" stroke-width="2" stroke-opacity="1" stroke-linejoin="round" stroke-linecap="round"/>
     <g id="password">
      <path id="path-10" d="M451.346 348.019 C451.346 345.8 449.03 344 446.173 344 443.316 344 441 345.8 441 348.019 441 350.239 443.316 352.039 446.173 352.039 449.03 352.039 451.346 350.239 451.346 348.019 Z" fill="#a9a9a9" fill-opacity="1" stroke="none"/>
      <path id="path-11" d="M459.346 354.019 C459.346 351.8 457.03 350 454.173 350 451.316 350 449 351.8 449 354.019 449 356.239 451.316 358.039 454.173 358.039 457.03 358.039 459.346 356.239 459.346 354.019 Z" fill="#a9a9a9" fill-opacity="1" stroke="none"/>
      <path id="path-12" d="M467.346 360.019 C467.346 357.8 465.03 356 462.173 356 459.316 356 457 357.8 457 360.019 457 362.239 459.316 364.039 462.173 364.039 465.03 364.039 467.346 362.239 467.346 360.019 Z" fill="#a9a9a9" fill-opacity="1" stroke="none"/>
      <path id="path-13" d="M475.346 366.019 C475.346 363.8 473.03 362 470.173 362 467.316 362 465 363.8 465 366.019 465 368.239 467.316 370.039 470.173 370.039 473.03 370.039 475.346 368.239 475.346 366.019 Z" fill="#a9a9a9" fill-opacity="1" stroke="none"/>
      <path id="path-14" d="M483.346 372.019 C483.346 369.8 481.03 368 478.173 368 475.316 368 473 369.8 473 372.019 473 374.239 475.316 376.039 478.173 376.039 481.03 376.039 483.346 374.239 483.346 372.019 Z" fill="#a9a9a9" fill-opacity="1" stroke="none"/>
      <path id="path-15" d="M491.346 378.019 C491.346 375.8 489.03 374 486.173 374 483.316 374 481 375.8 481 378.019 481 380.239 483.316 382.039 486.173 382.039 489.03 382.039 491.346 380.239 491.346 378.019 Z" fill="#a9a9a9" fill-opacity="1" stroke="none"/>
     </g>
    </g>
    <g id="username-field">
     <path id="path-16" d="M474 315.007 L554 375.007 537 388.002 457 328.007 Z" fill="none" stroke="#a9a9a9" stroke-width="2" stroke-opacity="1" stroke-linejoin="round" stroke-linecap="round"/>
     <path id="path-17" d="M472 327 L508 354" fill="none" stroke="#a9a9a9" stroke-width="8" stroke-opacity="1" stroke-linejoin="round" stroke-linecap="round"/>
    </g>
    <g id="logo">
     <path id="path-18" d="M601 313.019 C601 294.783 581.972 280 558.5 280 535.028 280 516 294.783 516 313.019 516 331.255 535.028 346.039 558.5 346.039 581.972 346.039 601 331.255 601 313.019 Z" fill="none" stroke="#a9a9a9" stroke-width="2" stroke-opacity="1" stroke-linejoin="round" stroke-linecap="round"/>
     <path id="path-19" d="M534 301 L564 300" fill="none" stroke="#a9a9a9" stroke-width="8" stroke-opacity="1" stroke-linejoin="round" stroke-linecap="round"/>
     <path id="path-20" d="M555 324 L585 323" fill="none" stroke="#a9a9a9" stroke-width="8" stroke-opacity="1" stroke-linejoin="round" stroke-linecap="round"/>
     <path id="path-21" d="M531 313 L587 311" fill="none" stroke="#a9a9a9" stroke-width="8" stroke-opacity="1" stroke-linejoin="round" stroke-linecap="round"/>
    </g>
   </g>
  </g>
  <g id="navigation-bar">
   <g id="active-tab">
    <path id="path-22" d="M454 63 L506 102" fill="none" stroke="#a9a9a9" stroke-width="3" stroke-opacity="1" stroke-linejoin="round" stroke-linecap="round"/>
    <g id="close-button">
     <path id="path-23" d="M531 118 L532.5 125" fill="none" stroke="#a9a9a9" stroke-width="1.99" stroke-opacity="1" stroke-linejoin="round" stroke-linecap="round"/>
     <path id="path-24" d="M528.125 121.5 L536 121.5" fill="none" stroke="#a9a9a9" stroke-width="1.99" stroke-opacity="1" stroke-linejoin="round" stroke-linecap="round"/>
    </g>
   </g>
   <path id="path-25" d="M959 491.002 L359 41.01 384 22.01 440.027 64.031 453 54.002 C453 54.002 454.323 53.007 455.998 53.002 457.67 52.997 458.998 54.002 458.998 54.002 L544.012 118.023 C544.012 118.023 545.993 119.341 545.998 121.002 546.003 122.706 545 123.002 545 123.002 L532.023 133.027 984 472.01 959 491.002 Z" fill="none" stroke="#a9a9a9" stroke-width="2" stroke-opacity="1" stroke-linejoin="round" stroke-linecap="round"/>
   <g id="url-field">
    <path id="path-26" d="M845.19 396 C841.275 396 837.805 394.519 835.657 392.24 L835.537 392.33 432.248 89.867 C429.015 88.23 426.875 85.398 426.875 82.176 426.875 77.108 432.163 73 438.686 73 442.067 73 445.113 74.106 447.266 75.875 L447.414 75.762 852.412 379.51 852.371 379.541 C855.185 381.218 857 383.856 857 386.824 857 391.892 851.713 396 845.19 396 Z" fill="none" stroke="#a9a9a9" stroke-width="2" stroke-opacity="1" stroke-linejoin="round" stroke-linecap="round"/>
    <path id="path-27" d="M442 85 L586 193" fill="none" stroke="#a9a9a9" stroke-width="6" stroke-opacity="1" stroke-linejoin="round" stroke-linecap="round"/>
   </g>
   <g id="forward">
    <path id="path-28" d="M404.567 56.289 L393.388 47.905" fill="none" stroke="#a9a9a9" stroke-width="1.854" stroke-opacity="1" stroke-linejoin="round" stroke-linecap="round"/>
    <path id="path-29" d="M404.567 55.358 L404 49" fill="none" stroke="#a9a9a9" stroke-width="1.854" stroke-opacity="1" stroke-linejoin="round" stroke-linecap="round"/>
    <path id="path-30" d="M403.635 56.289 L396 57" fill="none" stroke="#a9a9a9" stroke-width="1.854" stroke-opacity="1" stroke-linejoin="round" stroke-linecap="round"/>
   </g>
   <g id="back">
    <path id="path-31" d="M376.289 35.397 L387.468 43.781" fill="none" stroke="#a9a9a9" stroke-width="1.854" stroke-opacity="1" stroke-linejoin="round" stroke-linecap="round"/>
    <path id="path-32" d="M376.289 36.329 L376.856 42.686" fill="none" stroke="#a9a9a9" stroke-width="1.854" stroke-opacity="1" stroke-linejoin="round" stroke-linecap="round"/>
    <path id="path-33" d="M377.221 35.397 L384.856 34.686" fill="none" stroke="#a9a9a9" stroke-width="1.854" stroke-opacity="1" stroke-linejoin="round" stroke-linecap="round"/>
   </g>
   <g id="refresh">
    <path id="path-34" d="M424.069 66.854 C424.069 63.621 420.696 61 416.535 61 412.373 61 409 63.621 409 66.854 409 70.087 412.373 72.708 416.535 72.708 420.696 72.708 424.069 70.087 424.069 66.854 Z" fill="none" stroke="#a9a9a9" stroke-width="2" stroke-opacity="1" stroke-linejoin="round" stroke-linecap="round"/>
    <path id="path-35" d="M425.047 75.644 L428.827 71.446 421.395 64.755 417.615 68.953 Z" fill="#ffffff" fill-opacity="1" stroke="none"/>
    <path id="path-36" d="M426.103 66.563 L424.651 61.479" fill="none" stroke="#a9a9a9" stroke-width="2" stroke-opacity="1" stroke-linejoin="round" stroke-linecap="round"/>
    <path id="path-37" d="M425.377 67.289 L419.567 66.563" fill="none" stroke="#a9a9a9" stroke-width="2" stroke-opacity="1" stroke-linejoin="round" stroke-linecap="round"/>
   </g>
  </g>
  <path id="path-38" d="M404 7.001 L1004 457.001 604 757 4 307.001 Z" fill="none" stroke="#a9a9a9" stroke-width="3" stroke-opacity="1" stroke-linejoin="round" stroke-linecap="round"/>
 </g>
</svg>
